<svg width="1920" height="567" viewBox="0 0 1920 567" fill="none" xmlns="http://www.w3.org/2000/svg">
<path d="M0 567V198.602C246.634 168.798 508.618 291.046 608.781 355.895C738.862 416.605 1066.15 501.599 1334.63 355.895C1603.12 210.192 1836.75 190.323 1920 198.602V567H0Z" fill="#4E593E"/>
<g filter="url(#filter0_i_248_604)">
<line x1="16.5" y1="-16.5" x2="118.644" y2="-16.5" transform="matrix(-0.119359 -0.992851 -0.992851 0.119359 1818.48 255.493)" stroke="#CEC8B3" stroke-width="33" stroke-linecap="round"/>
</g>
<g filter="url(#filter1_i_248_604)">
<line x1="1649.96" y1="256.813" x2="1612.65" y2="146.019" stroke="#CEC8B3" stroke-width="39" stroke-linecap="round"/>
</g>
<g filter="url(#filter2_i_248_604)">
<line x1="1771.97" y1="293.58" x2="1728.6" y2="164.779" stroke="#CEC8B3" stroke-width="20" stroke-linecap="round"/>
</g>
<g filter="url(#filter3_di_248_604)">
<path d="M1579.85 71.459C1582.65 60.6545 1595.84 56.5774 1604.24 63.9215L1631.43 87.682C1633.44 89.4368 1635.88 90.6247 1638.5 91.1232L1691.1 101.133C1694.13 101.708 1696.9 103.2 1699.05 105.406L1709.29 115.928C1717.86 124.739 1712.78 139.561 1700.6 141.248L1623.41 151.94C1621.83 152.159 1620.3 152.627 1618.87 153.327L1544.95 189.533C1533.65 195.068 1520.97 185.068 1523.72 172.789L1527.96 153.791C1528.58 151.025 1529.97 148.49 1531.97 146.481L1567.56 110.74C1569.44 108.851 1570.79 106.495 1571.46 103.913L1579.85 71.459Z" fill="#8D3334"/>
</g>
<g filter="url(#filter4_di_248_604)">
<path d="M1795.82 63.2621C1800.41 53.089 1814.1 51.311 1821.14 59.9751L1837.54 80.1747C1839.22 82.2449 1841.42 83.8297 1843.92 84.7657L1884.93 100.137C1887.81 101.217 1890.29 103.158 1892.03 105.697L1895.99 111.475C1902.95 121.615 1895.42 135.358 1883.13 134.953L1822.44 132.953C1820.85 132.9 1819.26 133.102 1817.73 133.549L1756.15 151.584C1744.07 155.12 1733.27 143.112 1738.06 131.477L1742.2 121.439C1743.28 118.817 1745.08 116.555 1747.39 114.915L1781.02 91.0604C1783.2 89.5179 1784.92 87.4237 1786.02 84.9933L1795.82 63.2621Z" fill="#8D3334"/>
</g>
<g filter="url(#filter5_di_248_604)">
<path d="M1708.86 148.469C1711.24 137.566 1724.27 132.988 1732.94 140.006L1741.36 146.816C1743.44 148.492 1745.92 149.586 1748.56 149.984L1777.96 154.424C1780.6 154.822 1783.05 156.024 1784.98 157.865C1792.71 165.221 1788.79 178.24 1778.29 180.107L1740.15 186.882C1738.58 187.161 1737.07 187.687 1735.67 188.442L1701.58 206.784C1691.15 212.392 1678.87 203.448 1681.01 191.806C1681.5 189.183 1682.71 186.751 1684.52 184.791L1703.25 164.484C1705.06 162.524 1706.31 160.118 1706.88 157.514L1708.86 148.469Z" fill="#8D3334"/>
</g>
<g filter="url(#filter6_i_248_604)">
<path d="M204.186 222.393L220.316 88.2151" stroke="#CEC8B3" stroke-width="33" stroke-linecap="round"/>
</g>
<g filter="url(#filter7_i_248_604)">
<path d="M326.603 277.067L347.317 171.84" stroke="#CEC8B3" stroke-width="20" stroke-linecap="round"/>
</g>
<g filter="url(#filter8_i_248_604)">
<line x1="95.1327" y1="194.127" x2="91.5744" y2="106.953" stroke="#CEC8B3" stroke-width="20" stroke-linecap="round"/>
</g>
<g filter="url(#filter9_i_248_604)">
<path d="M161.78 252.742L166.179 130.296" stroke="#CEC8B3" stroke-width="12" stroke-linecap="round"/>
</g>
<g filter="url(#filter10_i_248_604)">
<path d="M247.156 307.995L272.818 165.752" stroke="#CEC8B3" stroke-width="16" stroke-linecap="round"/>
</g>
<g filter="url(#filter11_i_248_604)">
<path d="M391.454 252.134L401.719 216.206" stroke="#CEC8B3" stroke-width="6" stroke-linecap="round"/>
</g>
<g filter="url(#filter12_di_248_604)">
<path d="M220.791 31.6431C228.054 23.1697 241.697 25.3122 246.013 35.6041L254.1 54.8893C255.132 57.3485 256.8 59.4883 258.933 61.0883L290.019 84.4024C292.481 86.2494 294.316 88.8092 295.274 91.7346L296.245 94.7018C300.072 106.388 288.984 117.461 277.303 113.618L227.897 97.3651C226.384 96.8674 224.802 96.6138 223.21 96.6138L168.221 96.6138C155.638 96.6138 148.647 82.0546 156.514 72.2349L160.577 67.1642C162.35 64.9517 164.713 63.2868 167.393 62.3626L201.968 50.4404C204.488 49.5713 206.731 48.046 208.467 46.0217L220.791 31.6431Z" fill="#8D3334"/>
</g>
<g filter="url(#filter13_di_248_604)">
<path d="M346.193 138.009C354.301 130.341 367.646 133.896 370.863 144.582L372.388 149.647C373.157 152.2 374.593 154.502 376.547 156.316L394.84 173.294C396.521 174.854 397.682 176.894 398.164 179.136C400.09 188.093 391.012 195.436 382.656 191.679L352.625 178.181C351.173 177.528 349.625 177.11 348.042 176.944L315.32 173.508C305.211 172.447 300.823 160.16 307.972 152.935C309.583 151.307 311.622 150.169 313.853 149.652L336.406 144.433C339.003 143.831 341.394 142.549 343.331 140.717L346.193 138.009Z" fill="#8D3334"/>
</g>
<g filter="url(#filter14_di_248_604)">
<path d="M269.064 155.48C274.648 150.198 283.839 152.647 286.055 160.007L286.256 160.676C286.808 162.508 287.838 164.16 289.24 165.461L299.967 175.417C300.983 176.36 301.685 177.594 301.977 178.95C303.142 184.367 297.652 188.807 292.598 186.535L275.303 178.761C273.851 178.108 272.303 177.691 270.72 177.525L251.875 175.546C245.762 174.904 243.108 167.474 247.432 163.104C248.406 162.119 249.639 161.431 250.988 161.119L264.294 158.039C266.083 157.625 267.73 156.742 269.064 155.48Z" fill="#8D3334"/>
</g>
<g filter="url(#filter15_di_248_604)">
<path d="M160.744 123.507C164.723 118.266 172.827 119.052 175.726 124.958L175.99 125.495C176.712 126.966 177.812 128.217 179.178 129.12L189.627 136.031C190.618 136.686 191.383 137.63 191.818 138.734C193.558 143.147 189.541 147.664 184.956 146.451L169.429 142.343C168.002 141.965 166.523 141.817 165.049 141.904L149.028 142.854C143.775 143.165 140.497 137.26 143.538 132.966C144.223 131.998 145.169 131.245 146.265 130.792L157.073 126.334C158.526 125.735 159.793 124.759 160.744 123.507Z" fill="#8D3334"/>
</g>
<g filter="url(#filter16_di_248_604)">
<path d="M397.28 212.618C400.456 209.679 405.616 211.115 406.818 215.272L406.928 215.65C407.227 216.685 407.797 217.622 408.578 218.363L414.556 224.035C415.123 224.572 415.51 225.271 415.666 226.036C416.288 229.094 413.17 231.56 410.338 230.25L400.751 225.813C399.869 225.405 398.928 225.14 397.964 225.028L387.478 223.81C384.039 223.411 382.591 219.211 385.052 216.777C385.607 216.229 386.306 215.849 387.067 215.681L394.578 214.03C395.588 213.808 396.521 213.32 397.28 212.618Z" fill="#8D3334"/>
</g>
<g filter="url(#filter17_di_248_604)">
<path d="M80.0601 66.5842C85.2179 56.6874 98.9918 55.6881 105.524 64.7368L110.645 71.831C112.206 73.9931 114.315 75.7001 116.755 76.776L142.321 88.0494C144.636 89.0699 146.58 90.7777 147.89 92.941C153.125 101.583 146.309 112.506 136.245 111.602L99.8362 108.33C98.2501 108.187 96.6514 108.298 95.1003 108.659L59.5166 116.923C48.5982 119.458 39.5978 108.234 44.4457 98.1272C45.5381 95.8501 47.2534 93.9291 49.3929 92.587L71.3729 78.7989C73.6314 77.382 75.4716 75.3888 76.7038 73.0245L80.0601 66.5842Z" fill="#8D3334"/>
</g>
<defs>
<filter id="filter0_i_248_604" x="1804.2" y="103.227" width="45.1948" height="150.417" filterUnits="userSpaceOnUse" color-interpolation-filters="sRGB">
<feFlood flood-opacity="0" result="BackgroundImageFix"/>
<feBlend mode="normal" in="SourceGraphic" in2="BackgroundImageFix" result="shape"/>
<feColorMatrix in="SourceAlpha" type="matrix" values="0 0 0 0 0 0 0 0 0 0 0 0 0 0 0 0 0 0 127 0" result="hardAlpha"/>
<feOffset dy="-16"/>
<feGaussianBlur stdDeviation="9.3"/>
<feComposite in2="hardAlpha" operator="arithmetic" k2="-1" k3="1"/>
<feColorMatrix type="matrix" values="0 0 0 0 0.644231 0 0 0 0 0.574594 0 0 0 0 0.424325 0 0 0 1 0"/>
<feBlend mode="normal" in2="shape" result="effect1_innerShadow_248_604"/>
</filter>
<filter id="filter1_i_248_604" x="1593.14" y="110.514" width="76.3159" height="165.805" filterUnits="userSpaceOnUse" color-interpolation-filters="sRGB">
<feFlood flood-opacity="0" result="BackgroundImageFix"/>
<feBlend mode="normal" in="SourceGraphic" in2="BackgroundImageFix" result="shape"/>
<feColorMatrix in="SourceAlpha" type="matrix" values="0 0 0 0 0 0 0 0 0 0 0 0 0 0 0 0 0 0 127 0" result="hardAlpha"/>
<feOffset dy="-16"/>
<feGaussianBlur stdDeviation="9.3"/>
<feComposite in2="hardAlpha" operator="arithmetic" k2="-1" k3="1"/>
<feColorMatrix type="matrix" values="0 0 0 0 0.644231 0 0 0 0 0.574594 0 0 0 0 0.424325 0 0 0 1 0"/>
<feBlend mode="normal" in2="shape" result="effect1_innerShadow_248_604"/>
</filter>
<filter id="filter2_i_248_604" x="1718.6" y="138.776" width="63.3735" height="164.807" filterUnits="userSpaceOnUse" color-interpolation-filters="sRGB">
<feFlood flood-opacity="0" result="BackgroundImageFix"/>
<feBlend mode="normal" in="SourceGraphic" in2="BackgroundImageFix" result="shape"/>
<feColorMatrix in="SourceAlpha" type="matrix" values="0 0 0 0 0 0 0 0 0 0 0 0 0 0 0 0 0 0 127 0" result="hardAlpha"/>
<feOffset dy="-16"/>
<feGaussianBlur stdDeviation="9.3"/>
<feComposite in2="hardAlpha" operator="arithmetic" k2="-1" k3="1"/>
<feColorMatrix type="matrix" values="0 0 0 0 0.644231 0 0 0 0 0.574594 0 0 0 0 0.424325 0 0 0 1 0"/>
<feBlend mode="normal" in2="shape" result="effect1_innerShadow_248_604"/>
</filter>
<filter id="filter3_di_248_604" x="1515.34" y="60.2061" width="202.219" height="138.891" filterUnits="userSpaceOnUse" color-interpolation-filters="sRGB">
<feFlood flood-opacity="0" result="BackgroundImageFix"/>
<feColorMatrix in="SourceAlpha" type="matrix" values="0 0 0 0 0 0 0 0 0 0 0 0 0 0 0 0 0 0 127 0" result="hardAlpha"/>
<feOffset dy="4"/>
<feGaussianBlur stdDeviation="2"/>
<feComposite in2="hardAlpha" operator="out"/>
<feColorMatrix type="matrix" values="0 0 0 0 0 0 0 0 0 0 0 0 0 0 0 0 0 0 0.25 0"/>
<feBlend mode="normal" in2="BackgroundImageFix" result="effect1_dropShadow_248_604"/>
<feBlend mode="normal" in="SourceGraphic" in2="effect1_dropShadow_248_604" result="shape"/>
<feColorMatrix in="SourceAlpha" type="matrix" values="0 0 0 0 0 0 0 0 0 0 0 0 0 0 0 0 0 0 127 0" result="hardAlpha"/>
<feOffset dx="-8" dy="2"/>
<feGaussianBlur stdDeviation="5.6"/>
<feComposite in2="hardAlpha" operator="arithmetic" k2="-1" k3="1"/>
<feColorMatrix type="matrix" values="0 0 0 0 0.6875 0 0 0 0 0.218149 0 0 0 0 0.218149 0 0 0 0.6 0"/>
<feBlend mode="normal" in2="shape" result="effect2_innerShadow_248_604"/>
</filter>
<filter id="filter4_di_248_604" x="1728.9" y="54.4277" width="173.752" height="105.785" filterUnits="userSpaceOnUse" color-interpolation-filters="sRGB">
<feFlood flood-opacity="0" result="BackgroundImageFix"/>
<feColorMatrix in="SourceAlpha" type="matrix" values="0 0 0 0 0 0 0 0 0 0 0 0 0 0 0 0 0 0 127 0" result="hardAlpha"/>
<feOffset dy="4"/>
<feGaussianBlur stdDeviation="2"/>
<feComposite in2="hardAlpha" operator="out"/>
<feColorMatrix type="matrix" values="0 0 0 0 0 0 0 0 0 0 0 0 0 0 0 0 0 0 0.25 0"/>
<feBlend mode="normal" in2="BackgroundImageFix" result="effect1_dropShadow_248_604"/>
<feBlend mode="normal" in="SourceGraphic" in2="effect1_dropShadow_248_604" result="shape"/>
<feColorMatrix in="SourceAlpha" type="matrix" values="0 0 0 0 0 0 0 0 0 0 0 0 0 0 0 0 0 0 127 0" result="hardAlpha"/>
<feOffset dx="-8" dy="2"/>
<feGaussianBlur stdDeviation="5.6"/>
<feComposite in2="hardAlpha" operator="arithmetic" k2="-1" k3="1"/>
<feColorMatrix type="matrix" values="0 0 0 0 0.6875 0 0 0 0 0.218149 0 0 0 0 0.218149 0 0 0 0.6 0"/>
<feBlend mode="normal" in2="shape" result="effect2_innerShadow_248_604"/>
</filter>
<filter id="filter5_di_248_604" x="1672.77" y="136.657" width="120.271" height="79.8438" filterUnits="userSpaceOnUse" color-interpolation-filters="sRGB">
<feFlood flood-opacity="0" result="BackgroundImageFix"/>
<feColorMatrix in="SourceAlpha" type="matrix" values="0 0 0 0 0 0 0 0 0 0 0 0 0 0 0 0 0 0 127 0" result="hardAlpha"/>
<feOffset dy="4"/>
<feGaussianBlur stdDeviation="2"/>
<feComposite in2="hardAlpha" operator="out"/>
<feColorMatrix type="matrix" values="0 0 0 0 0 0 0 0 0 0 0 0 0 0 0 0 0 0 0.25 0"/>
<feBlend mode="normal" in2="BackgroundImageFix" result="effect1_dropShadow_248_604"/>
<feBlend mode="normal" in="SourceGraphic" in2="effect1_dropShadow_248_604" result="shape"/>
<feColorMatrix in="SourceAlpha" type="matrix" values="0 0 0 0 0 0 0 0 0 0 0 0 0 0 0 0 0 0 127 0" result="hardAlpha"/>
<feOffset dx="-8" dy="2"/>
<feGaussianBlur stdDeviation="5.6"/>
<feComposite in2="hardAlpha" operator="arithmetic" k2="-1" k3="1"/>
<feColorMatrix type="matrix" values="0 0 0 0 0.6875 0 0 0 0 0.218149 0 0 0 0 0.218149 0 0 0 0.6 0"/>
<feBlend mode="normal" in2="shape" result="effect2_innerShadow_248_604"/>
</filter>
<filter id="filter6_i_248_604" x="187.684" y="71.7139" width="54.1338" height="169.181" filterUnits="userSpaceOnUse" color-interpolation-filters="sRGB">
<feFlood flood-opacity="0" result="BackgroundImageFix"/>
<feBlend mode="normal" in="SourceGraphic" in2="BackgroundImageFix" result="shape"/>
<feColorMatrix in="SourceAlpha" type="matrix" values="0 0 0 0 0 0 0 0 0 0 0 0 0 0 0 0 0 0 127 0" result="hardAlpha"/>
<feOffset dx="5" dy="2"/>
<feGaussianBlur stdDeviation="10.75"/>
<feComposite in2="hardAlpha" operator="arithmetic" k2="-1" k3="1"/>
<feColorMatrix type="matrix" values="0 0 0 0 0.625 0 0 0 0 0.573687 0 0 0 0 0.402644 0 0 0 0.58 0"/>
<feBlend mode="normal" in2="shape" result="effect1_innerShadow_248_604"/>
</filter>
<filter id="filter7_i_248_604" x="316.601" y="161.838" width="45.7178" height="127.231" filterUnits="userSpaceOnUse" color-interpolation-filters="sRGB">
<feFlood flood-opacity="0" result="BackgroundImageFix"/>
<feBlend mode="normal" in="SourceGraphic" in2="BackgroundImageFix" result="shape"/>
<feColorMatrix in="SourceAlpha" type="matrix" values="0 0 0 0 0 0 0 0 0 0 0 0 0 0 0 0 0 0 127 0" result="hardAlpha"/>
<feOffset dx="5" dy="2"/>
<feGaussianBlur stdDeviation="10.75"/>
<feComposite in2="hardAlpha" operator="arithmetic" k2="-1" k3="1"/>
<feColorMatrix type="matrix" values="0 0 0 0 0.625 0 0 0 0 0.573687 0 0 0 0 0.402644 0 0 0 0.58 0"/>
<feBlend mode="normal" in2="shape" result="effect1_innerShadow_248_604"/>
</filter>
<filter id="filter8_i_248_604" x="81.5742" y="96.9521" width="28.5586" height="109.175" filterUnits="userSpaceOnUse" color-interpolation-filters="sRGB">
<feFlood flood-opacity="0" result="BackgroundImageFix"/>
<feBlend mode="normal" in="SourceGraphic" in2="BackgroundImageFix" result="shape"/>
<feColorMatrix in="SourceAlpha" type="matrix" values="0 0 0 0 0 0 0 0 0 0 0 0 0 0 0 0 0 0 127 0" result="hardAlpha"/>
<feOffset dx="5" dy="2"/>
<feGaussianBlur stdDeviation="10.75"/>
<feComposite in2="hardAlpha" operator="arithmetic" k2="-1" k3="1"/>
<feColorMatrix type="matrix" values="0 0 0 0 0.625 0 0 0 0 0.573687 0 0 0 0 0.402644 0 0 0 0.58 0"/>
<feBlend mode="normal" in2="shape" result="effect1_innerShadow_248_604"/>
</filter>
<filter id="filter9_i_248_604" x="155.78" y="124.296" width="21.3989" height="136.446" filterUnits="userSpaceOnUse" color-interpolation-filters="sRGB">
<feFlood flood-opacity="0" result="BackgroundImageFix"/>
<feBlend mode="normal" in="SourceGraphic" in2="BackgroundImageFix" result="shape"/>
<feColorMatrix in="SourceAlpha" type="matrix" values="0 0 0 0 0 0 0 0 0 0 0 0 0 0 0 0 0 0 127 0" result="hardAlpha"/>
<feOffset dx="5" dy="2"/>
<feGaussianBlur stdDeviation="10.75"/>
<feComposite in2="hardAlpha" operator="arithmetic" k2="-1" k3="1"/>
<feColorMatrix type="matrix" values="0 0 0 0 0.625 0 0 0 0 0.573687 0 0 0 0 0.402644 0 0 0 0.58 0"/>
<feBlend mode="normal" in2="shape" result="effect1_innerShadow_248_604"/>
</filter>
<filter id="filter10_i_248_604" x="239.154" y="157.751" width="46.6646" height="160.245" filterUnits="userSpaceOnUse" color-interpolation-filters="sRGB">
<feFlood flood-opacity="0" result="BackgroundImageFix"/>
<feBlend mode="normal" in="SourceGraphic" in2="BackgroundImageFix" result="shape"/>
<feColorMatrix in="SourceAlpha" type="matrix" values="0 0 0 0 0 0 0 0 0 0 0 0 0 0 0 0 0 0 127 0" result="hardAlpha"/>
<feOffset dx="5" dy="2"/>
<feGaussianBlur stdDeviation="10.75"/>
<feComposite in2="hardAlpha" operator="arithmetic" k2="-1" k3="1"/>
<feColorMatrix type="matrix" values="0 0 0 0 0.625 0 0 0 0 0.573687 0 0 0 0 0.402644 0 0 0 0.58 0"/>
<feBlend mode="normal" in2="shape" result="effect1_innerShadow_248_604"/>
</filter>
<filter id="filter11_i_248_604" x="388.453" y="213.206" width="21.2666" height="43.9287" filterUnits="userSpaceOnUse" color-interpolation-filters="sRGB">
<feFlood flood-opacity="0" result="BackgroundImageFix"/>
<feBlend mode="normal" in="SourceGraphic" in2="BackgroundImageFix" result="shape"/>
<feColorMatrix in="SourceAlpha" type="matrix" values="0 0 0 0 0 0 0 0 0 0 0 0 0 0 0 0 0 0 127 0" result="hardAlpha"/>
<feOffset dx="5" dy="2"/>
<feGaussianBlur stdDeviation="10.75"/>
<feComposite in2="hardAlpha" operator="arithmetic" k2="-1" k3="1"/>
<feColorMatrix type="matrix" values="0 0 0 0 0.625 0 0 0 0 0.573687 0 0 0 0 0.402644 0 0 0 0.58 0"/>
<feBlend mode="normal" in2="shape" result="effect1_innerShadow_248_604"/>
</filter>
<filter id="filter12_di_248_604" x="149.192" y="26.4014" width="151.823" height="95.9932" filterUnits="userSpaceOnUse" color-interpolation-filters="sRGB">
<feFlood flood-opacity="0" result="BackgroundImageFix"/>
<feColorMatrix in="SourceAlpha" type="matrix" values="0 0 0 0 0 0 0 0 0 0 0 0 0 0 0 0 0 0 127 0" result="hardAlpha"/>
<feOffset dy="4"/>
<feGaussianBlur stdDeviation="2"/>
<feComposite in2="hardAlpha" operator="out"/>
<feColorMatrix type="matrix" values="0 0 0 0 0.283654 0 0 0 0 0.170465 0 0 0 0 0.170465 0 0 0 0.31 0"/>
<feBlend mode="normal" in2="BackgroundImageFix" result="effect1_dropShadow_248_604"/>
<feBlend mode="normal" in="SourceGraphic" in2="effect1_dropShadow_248_604" result="shape"/>
<feColorMatrix in="SourceAlpha" type="matrix" values="0 0 0 0 0 0 0 0 0 0 0 0 0 0 0 0 0 0 127 0" result="hardAlpha"/>
<feOffset dx="4" dy="1"/>
<feGaussianBlur stdDeviation="7.35"/>
<feComposite in2="hardAlpha" operator="arithmetic" k2="-1" k3="1"/>
<feColorMatrix type="matrix" values="0 0 0 0 0.769231 0 0 0 0 0.0443787 0 0 0 0 0.05646 0 0 0 0.55 0"/>
<feBlend mode="normal" in2="shape" result="effect2_innerShadow_248_604"/>
</filter>
<filter id="filter13_di_248_604" x="300.452" y="133.899" width="101.973" height="66.7852" filterUnits="userSpaceOnUse" color-interpolation-filters="sRGB">
<feFlood flood-opacity="0" result="BackgroundImageFix"/>
<feColorMatrix in="SourceAlpha" type="matrix" values="0 0 0 0 0 0 0 0 0 0 0 0 0 0 0 0 0 0 127 0" result="hardAlpha"/>
<feOffset dy="4"/>
<feGaussianBlur stdDeviation="2"/>
<feComposite in2="hardAlpha" operator="out"/>
<feColorMatrix type="matrix" values="0 0 0 0 0.283654 0 0 0 0 0.170465 0 0 0 0 0.170465 0 0 0 0.31 0"/>
<feBlend mode="normal" in2="BackgroundImageFix" result="effect1_dropShadow_248_604"/>
<feBlend mode="normal" in="SourceGraphic" in2="effect1_dropShadow_248_604" result="shape"/>
<feColorMatrix in="SourceAlpha" type="matrix" values="0 0 0 0 0 0 0 0 0 0 0 0 0 0 0 0 0 0 127 0" result="hardAlpha"/>
<feOffset dx="4" dy="1"/>
<feGaussianBlur stdDeviation="7.35"/>
<feComposite in2="hardAlpha" operator="arithmetic" k2="-1" k3="1"/>
<feColorMatrix type="matrix" values="0 0 0 0 0.769231 0 0 0 0 0.0443787 0 0 0 0 0.05646 0 0 0 0.55 0"/>
<feBlend mode="normal" in2="shape" result="effect2_innerShadow_248_604"/>
</filter>
<filter id="filter14_di_248_604" x="241.303" y="152.649" width="64.8315" height="42.4941" filterUnits="userSpaceOnUse" color-interpolation-filters="sRGB">
<feFlood flood-opacity="0" result="BackgroundImageFix"/>
<feColorMatrix in="SourceAlpha" type="matrix" values="0 0 0 0 0 0 0 0 0 0 0 0 0 0 0 0 0 0 127 0" result="hardAlpha"/>
<feOffset dy="4"/>
<feGaussianBlur stdDeviation="2"/>
<feComposite in2="hardAlpha" operator="out"/>
<feColorMatrix type="matrix" values="0 0 0 0 0.283654 0 0 0 0 0.170465 0 0 0 0 0.170465 0 0 0 0.31 0"/>
<feBlend mode="normal" in2="BackgroundImageFix" result="effect1_dropShadow_248_604"/>
<feBlend mode="normal" in="SourceGraphic" in2="effect1_dropShadow_248_604" result="shape"/>
<feColorMatrix in="SourceAlpha" type="matrix" values="0 0 0 0 0 0 0 0 0 0 0 0 0 0 0 0 0 0 127 0" result="hardAlpha"/>
<feOffset dx="4" dy="1"/>
<feGaussianBlur stdDeviation="7.35"/>
<feComposite in2="hardAlpha" operator="arithmetic" k2="-1" k3="1"/>
<feColorMatrix type="matrix" values="0 0 0 0 0.769231 0 0 0 0 0.0443787 0 0 0 0 0.05646 0 0 0 0.55 0"/>
<feBlend mode="normal" in2="shape" result="effect2_innerShadow_248_604"/>
</filter>
<filter id="filter15_di_248_604" x="138.371" y="120.011" width="57.8623" height="34.6396" filterUnits="userSpaceOnUse" color-interpolation-filters="sRGB">
<feFlood flood-opacity="0" result="BackgroundImageFix"/>
<feColorMatrix in="SourceAlpha" type="matrix" values="0 0 0 0 0 0 0 0 0 0 0 0 0 0 0 0 0 0 127 0" result="hardAlpha"/>
<feOffset dy="4"/>
<feGaussianBlur stdDeviation="2"/>
<feComposite in2="hardAlpha" operator="out"/>
<feColorMatrix type="matrix" values="0 0 0 0 0.283654 0 0 0 0 0.170465 0 0 0 0 0.170465 0 0 0 0.31 0"/>
<feBlend mode="normal" in2="BackgroundImageFix" result="effect1_dropShadow_248_604"/>
<feBlend mode="normal" in="SourceGraphic" in2="effect1_dropShadow_248_604" result="shape"/>
<feColorMatrix in="SourceAlpha" type="matrix" values="0 0 0 0 0 0 0 0 0 0 0 0 0 0 0 0 0 0 127 0" result="hardAlpha"/>
<feOffset dx="4" dy="1"/>
<feGaussianBlur stdDeviation="7.35"/>
<feComposite in2="hardAlpha" operator="arithmetic" k2="-1" k3="1"/>
<feColorMatrix type="matrix" values="0 0 0 0 0.769231 0 0 0 0 0.0443787 0 0 0 0 0.05646 0 0 0 0.55 0"/>
<feBlend mode="normal" in2="shape" result="effect2_innerShadow_248_604"/>
</filter>
<filter id="filter16_di_248_604" x="379.822" y="211.067" width="39.9238" height="27.542" filterUnits="userSpaceOnUse" color-interpolation-filters="sRGB">
<feFlood flood-opacity="0" result="BackgroundImageFix"/>
<feColorMatrix in="SourceAlpha" type="matrix" values="0 0 0 0 0 0 0 0 0 0 0 0 0 0 0 0 0 0 127 0" result="hardAlpha"/>
<feOffset dy="4"/>
<feGaussianBlur stdDeviation="2"/>
<feComposite in2="hardAlpha" operator="out"/>
<feColorMatrix type="matrix" values="0 0 0 0 0.283654 0 0 0 0 0.170465 0 0 0 0 0.170465 0 0 0 0.31 0"/>
<feBlend mode="normal" in2="BackgroundImageFix" result="effect1_dropShadow_248_604"/>
<feBlend mode="normal" in="SourceGraphic" in2="effect1_dropShadow_248_604" result="shape"/>
<feColorMatrix in="SourceAlpha" type="matrix" values="0 0 0 0 0 0 0 0 0 0 0 0 0 0 0 0 0 0 127 0" result="hardAlpha"/>
<feOffset dx="4" dy="1"/>
<feGaussianBlur stdDeviation="7.35"/>
<feComposite in2="hardAlpha" operator="arithmetic" k2="-1" k3="1"/>
<feColorMatrix type="matrix" values="0 0 0 0 0.769231 0 0 0 0 0.0443787 0 0 0 0 0.05646 0 0 0 0.55 0"/>
<feBlend mode="normal" in2="shape" result="effect2_innerShadow_248_604"/>
</filter>
<filter id="filter17_di_248_604" x="39.1001" y="58.5156" width="114.599" height="66.7695" filterUnits="userSpaceOnUse" color-interpolation-filters="sRGB">
<feFlood flood-opacity="0" result="BackgroundImageFix"/>
<feColorMatrix in="SourceAlpha" type="matrix" values="0 0 0 0 0 0 0 0 0 0 0 0 0 0 0 0 0 0 127 0" result="hardAlpha"/>
<feOffset dy="4"/>
<feGaussianBlur stdDeviation="2"/>
<feComposite in2="hardAlpha" operator="out"/>
<feColorMatrix type="matrix" values="0 0 0 0 0.283654 0 0 0 0 0.170465 0 0 0 0 0.170465 0 0 0 0.31 0"/>
<feBlend mode="normal" in2="BackgroundImageFix" result="effect1_dropShadow_248_604"/>
<feBlend mode="normal" in="SourceGraphic" in2="effect1_dropShadow_248_604" result="shape"/>
<feColorMatrix in="SourceAlpha" type="matrix" values="0 0 0 0 0 0 0 0 0 0 0 0 0 0 0 0 0 0 127 0" result="hardAlpha"/>
<feOffset dx="4" dy="1"/>
<feGaussianBlur stdDeviation="7.35"/>
<feComposite in2="hardAlpha" operator="arithmetic" k2="-1" k3="1"/>
<feColorMatrix type="matrix" values="0 0 0 0 0.769231 0 0 0 0 0.0443787 0 0 0 0 0.05646 0 0 0 0.55 0"/>
<feBlend mode="normal" in2="shape" result="effect2_innerShadow_248_604"/>
</filter>
</defs>
</svg>
