<svg width="1920" height="4055" viewBox="0 0 1920 4055" fill="none" xmlns="http://www.w3.org/2000/svg">
<g clip-path="url(#clip0_302_1141)">
<rect width="4055" height="1920" transform="translate(0 4055) rotate(-90)" fill="#B7C1A8"/>
<path d="M1129.27 1116.5C1129.54 1114.14 1132.98 1114.14 1133.25 1116.5L1140.87 1183.63C1141.03 1185.02 1142.53 1185.83 1143.78 1185.18L1161.54 1175.97C1163.16 1175.13 1164.97 1176.72 1164.34 1178.43L1156.07 1200.98C1155.64 1202.15 1156.37 1203.42 1157.6 1203.64L1210.87 1213.07C1213.07 1213.46 1213.07 1216.62 1210.87 1217.01L1157.55 1226.44C1156.34 1226.66 1155.61 1227.9 1156 1229.06L1164.34 1253.36C1164.94 1255.12 1163.01 1256.68 1161.41 1255.72L1143.85 1245.15C1142.61 1244.4 1141 1245.19 1140.84 1246.64L1133.25 1311.91C1132.97 1314.27 1129.55 1314.27 1129.27 1311.91L1121.67 1246.54C1121.51 1245.12 1119.95 1244.33 1118.7 1245.03L1099.59 1255.78C1097.95 1256.7 1096.05 1255.05 1096.75 1253.29L1106.37 1229.11C1106.84 1227.94 1106.12 1226.64 1104.87 1226.41L1053.7 1217C1051.52 1216.6 1051.52 1213.47 1053.7 1213.07L1104.82 1203.68C1106.08 1203.44 1106.8 1202.1 1106.29 1200.92L1096.75 1178.51C1096.03 1176.81 1097.8 1175.12 1099.46 1175.92L1118.78 1185.29C1120.02 1185.89 1121.49 1185.08 1121.64 1183.71L1129.27 1116.5Z" fill="#F2CCA7"/>
<path d="M1745.27 2059.5C1745.54 2057.14 1748.98 2057.14 1749.25 2059.5L1756.87 2126.63C1757.03 2128.02 1758.53 2128.83 1759.78 2128.18L1777.54 2118.97C1779.16 2118.13 1780.97 2119.72 1780.34 2121.43L1772.07 2143.98C1771.64 2145.15 1772.37 2146.42 1773.6 2146.64L1826.87 2156.07C1829.07 2156.46 1829.07 2159.62 1826.87 2160.01L1773.55 2169.44C1772.34 2169.66 1771.61 2170.9 1772 2172.06L1780.34 2196.36C1780.94 2198.12 1779.01 2199.68 1777.41 2198.72L1759.85 2188.15C1758.61 2187.4 1757 2188.19 1756.84 2189.64L1749.25 2254.91C1748.97 2257.27 1745.55 2257.27 1745.27 2254.91L1737.67 2189.54C1737.51 2188.12 1735.95 2187.33 1734.7 2188.03L1715.59 2198.78C1713.95 2199.7 1712.05 2198.05 1712.75 2196.29L1722.37 2172.11C1722.84 2170.94 1722.12 2169.64 1720.87 2169.41L1669.7 2160C1667.52 2159.6 1667.52 2156.47 1669.7 2156.07L1720.82 2146.68C1722.08 2146.44 1722.8 2145.1 1722.29 2143.92L1712.75 2121.51C1712.03 2119.81 1713.8 2118.12 1715.46 2118.92L1734.78 2128.29C1736.02 2128.89 1737.49 2128.08 1737.64 2126.71L1745.27 2059.5Z" fill="#F2CCA7"/>
<path d="M1746.48 3100.46C1746.75 3098.1 1750.18 3098.1 1750.45 3100.46L1756.41 3152.79C1756.57 3154.19 1758.07 3154.99 1759.31 3154.34L1772.91 3147.31C1774.53 3146.47 1776.33 3148.07 1775.7 3149.78L1769.26 3167.31C1768.83 3168.48 1769.56 3169.75 1770.79 3169.97L1812.84 3177.39C1815.05 3177.78 1815.05 3180.94 1812.84 3181.33L1770.74 3188.76C1769.53 3188.98 1768.79 3190.22 1769.19 3191.38L1775.7 3210.31C1776.3 3212.07 1774.38 3213.63 1772.78 3212.67L1759.39 3204.64C1758.15 3203.89 1756.55 3204.68 1756.38 3206.12L1750.45 3256.96C1750.18 3259.31 1746.75 3259.31 1746.48 3256.96L1740.54 3206.02C1740.38 3204.61 1738.82 3203.81 1737.58 3204.51L1722.93 3212.73C1721.29 3213.65 1719.4 3211.99 1720.1 3210.24L1727.6 3191.44C1728.06 3190.26 1727.34 3188.96 1726.1 3188.73L1685.73 3181.33C1683.54 3180.93 1683.54 3177.79 1685.73 3177.39L1726.04 3170C1727.3 3169.77 1728.02 3168.43 1727.52 3167.25L1720.1 3149.85C1719.37 3148.15 1721.14 3146.46 1722.81 3147.27L1737.66 3154.45C1738.9 3155.05 1740.36 3154.25 1740.52 3152.88L1746.48 3100.46Z" fill="#F2CCA7"/>
<path d="M73.2722 2868.5C73.5408 2866.14 76.9781 2866.14 77.2467 2868.5L84.8671 2935.63C85.0252 2937.02 86.5304 2937.83 87.7751 2937.18L105.544 2927.97C107.164 2927.13 108.971 2928.72 108.342 2930.43L100.068 2952.98C99.6396 2954.15 100.372 2955.42 101.598 2955.64L154.872 2965.07C157.074 2965.46 157.074 2968.62 154.872 2969.01L101.547 2978.44C100.338 2978.66 99.6057 2979.9 100.004 2981.06L108.336 3005.36C108.941 3007.12 107.012 3008.68 105.413 3007.72L87.8543 2997.15C86.6084 2996.4 85.0044 2997.19 84.8365 2998.64L77.2461 3063.91C76.9718 3066.27 73.5471 3066.27 73.2728 3063.91L65.6711 2998.54C65.5061 2997.12 63.9493 2996.33 62.7041 2997.03L43.5892 3007.78C41.9457 3008.7 40.0534 3007.05 40.7504 3005.29L50.3715 2981.11C50.838 2979.94 50.1156 2978.64 48.8747 2978.41L-2.29686 2969C-4.48151 2968.6 -4.48151 2965.47 -2.29686 2965.07L48.8157 2955.68C50.0758 2955.44 50.7962 2954.1 50.2944 2952.92L40.7503 2930.51C40.0263 2928.81 41.7994 2927.12 43.4628 2927.92L62.7829 2937.29C64.0239 2937.89 65.4869 2937.08 65.6425 2935.71L73.2722 2868.5Z" fill="#F2CCA7"/>
<path d="M1140.27 1854.5C1140.54 1852.14 1143.98 1852.14 1144.25 1854.5L1151.87 1921.63C1152.03 1923.02 1153.53 1923.83 1154.78 1923.18L1172.54 1913.97C1174.16 1913.13 1175.97 1914.72 1175.34 1916.43L1167.07 1938.98C1166.64 1940.15 1167.37 1941.42 1168.6 1941.64L1221.87 1951.07C1224.07 1951.46 1224.07 1954.62 1221.87 1955.01L1168.55 1964.44C1167.34 1964.66 1166.61 1965.9 1167 1967.06L1175.34 1991.36C1175.94 1993.12 1174.01 1994.68 1172.41 1993.72L1154.85 1983.15C1153.61 1982.4 1152 1983.19 1151.84 1984.64L1144.25 2049.91C1143.97 2052.27 1140.55 2052.27 1140.27 2049.91L1132.67 1984.54C1132.51 1983.12 1130.95 1982.33 1129.7 1983.03L1110.59 1993.78C1108.95 1994.7 1107.05 1993.05 1107.75 1991.29L1117.37 1967.11C1117.84 1965.94 1117.12 1964.64 1115.87 1964.41L1064.7 1955C1062.52 1954.6 1062.52 1951.47 1064.7 1951.07L1115.82 1941.68C1117.08 1941.44 1117.8 1940.1 1117.29 1938.92L1107.75 1916.51C1107.03 1914.81 1108.8 1913.12 1110.46 1913.92L1129.78 1923.29C1131.02 1923.89 1132.49 1923.08 1132.64 1921.71L1140.27 1854.5Z" fill="#F2CCA7"/>
<path d="M984.18 3351.48C984.449 3349.12 987.886 3349.12 988.155 3351.48L992.5 3389.71C992.659 3391.11 994.163 3391.91 995.407 3391.26L1004.96 3386.31C1006.58 3385.48 1008.39 3387.07 1007.76 3388.78L1003.07 3401.54C1002.64 3402.71 1003.37 3403.98 1004.6 3404.2L1035.86 3409.72C1038.06 3410.11 1038.06 3413.27 1035.86 3413.66L1004.55 3419.2C1003.34 3419.41 1002.61 3420.65 1003.01 3421.81L1007.75 3435.64C1008.36 3437.4 1006.43 3438.96 1004.83 3438L995.486 3432.39C994.241 3431.64 992.638 3432.42 992.47 3433.87L988.154 3470.94C987.88 3473.29 984.456 3473.29 984.181 3470.94L979.854 3433.77C979.689 3432.35 978.133 3431.56 976.888 3432.26L966.562 3438.06C964.918 3438.98 963.027 3437.33 963.724 3435.58L969.185 3421.87C969.652 3420.7 968.929 3419.39 967.688 3419.16L937.717 3413.66C935.531 3413.26 935.531 3410.13 937.717 3409.73L967.628 3404.24C968.889 3404 969.61 3402.66 969.107 3401.48L963.725 3388.86C963 3387.16 964.772 3385.47 966.436 3386.27L976.967 3391.37C978.208 3391.97 979.67 3391.17 979.826 3389.8L984.18 3351.48Z" fill="#F2CCA7"/>
<path d="M230.272 1778.5C230.541 1776.14 233.978 1776.14 234.247 1778.5L241.867 1845.63C242.025 1847.02 243.53 1847.83 244.775 1847.18L262.544 1837.97C264.164 1837.13 265.971 1838.72 265.342 1840.43L257.068 1862.98C256.64 1864.15 257.372 1865.42 258.598 1865.64L311.872 1875.07C314.074 1875.46 314.074 1878.62 311.872 1879.01L258.547 1888.44C257.338 1888.66 256.606 1889.9 257.004 1891.06L265.336 1915.36C265.941 1917.12 264.012 1918.68 262.413 1917.72L244.854 1907.15C243.608 1906.4 242.004 1907.19 241.836 1908.64L234.246 1973.91C233.972 1976.27 230.547 1976.27 230.273 1973.91L222.671 1908.54C222.506 1907.12 220.949 1906.33 219.704 1907.03L200.589 1917.78C198.946 1918.7 197.053 1917.05 197.75 1915.29L207.372 1891.11C207.838 1889.94 207.116 1888.64 205.875 1888.41L154.703 1879C152.518 1878.6 152.518 1875.47 154.703 1875.07L205.816 1865.68C207.076 1865.44 207.796 1864.1 207.294 1862.92L197.75 1840.51C197.026 1838.81 198.799 1837.12 200.463 1837.92L219.783 1847.29C221.024 1847.89 222.487 1847.08 222.642 1845.71L230.272 1778.5Z" fill="#F2CCA7"/>
<path d="M1378.14 820.516C1378.41 818.15 1381.84 818.15 1382.11 820.516L1386.79 861.755C1386.95 863.148 1388.46 863.95 1389.7 863.304L1400.09 857.913C1401.71 857.072 1403.52 858.663 1402.89 860.377L1397.83 874.168C1397.4 875.337 1398.14 876.609 1399.36 876.826L1432.88 882.76C1435.08 883.15 1435.08 886.309 1432.88 886.699L1399.31 892.642C1398.1 892.856 1397.37 894.099 1397.77 895.26L1402.88 910.185C1403.49 911.95 1401.56 913.509 1399.96 912.546L1389.78 906.417C1388.53 905.667 1386.93 906.455 1386.76 907.9L1382.11 947.904C1381.84 950.263 1378.41 950.263 1378.14 947.904L1373.48 907.803C1373.31 906.383 1371.76 905.59 1370.51 906.291L1359.29 912.604C1357.65 913.529 1355.76 911.875 1356.45 910.122L1362.34 895.315C1362.81 894.143 1362.09 892.837 1360.84 892.609L1328.7 886.697C1326.51 886.295 1326.51 883.164 1328.7 882.763L1360.79 876.862C1362.05 876.63 1362.77 875.29 1362.26 874.112L1356.45 860.452C1355.73 858.751 1357.5 857.063 1359.17 857.87L1370.59 863.411C1371.83 864.013 1373.3 863.207 1373.45 861.837L1378.14 820.516Z" fill="#F2CCA7"/>
<path d="M206.083 1187.49C206.352 1185.12 209.789 1185.12 210.058 1187.49L215.18 1232.56C215.338 1233.96 216.843 1234.76 218.087 1234.11L229.592 1228.15C231.212 1227.31 233.018 1228.9 232.389 1230.62L226.85 1245.7C226.421 1246.87 227.153 1248.14 228.38 1248.36L264.858 1254.81C267.061 1255.19 267.061 1258.35 264.858 1258.74L228.329 1265.2C227.12 1265.42 226.387 1266.66 226.786 1267.82L232.383 1284.12C232.988 1285.89 231.06 1287.45 229.46 1286.49L218.167 1279.7C216.921 1278.95 215.318 1279.74 215.15 1281.18L210.057 1324.93C209.783 1327.29 206.358 1327.29 206.084 1324.93L200.98 1281.08C200.815 1279.67 199.259 1278.87 198.014 1279.57L185.602 1286.55C183.958 1287.47 182.067 1285.81 182.765 1284.06L189.212 1267.87C189.679 1266.7 188.956 1265.4 187.715 1265.17L152.715 1258.74C150.529 1258.34 150.529 1255.21 152.715 1254.81L187.656 1248.39C188.916 1248.16 189.637 1246.82 189.134 1245.64L182.765 1230.69C182.04 1228.99 183.812 1227.3 185.476 1228.11L198.093 1234.22C199.334 1234.82 200.796 1234.01 200.952 1232.64L206.083 1187.49Z" fill="#F2CCA7"/>
<path d="M559.507 531.475C559.776 529.11 563.212 529.11 563.481 531.475L569.214 581.891C569.373 583.283 570.877 584.085 572.121 583.441L585.157 576.692C586.778 575.853 588.583 577.445 587.954 579.158L581.749 596.042C581.319 597.211 582.051 598.484 583.278 598.701L623.851 605.868C626.054 606.257 626.054 609.418 623.851 609.807L583.228 616.983C582.018 617.197 581.285 618.441 581.684 619.603L587.947 637.837C588.554 639.602 586.626 641.162 585.026 640.201L572.2 632.496C570.955 631.748 569.352 632.536 569.184 633.979L563.481 682.944C563.206 685.302 559.782 685.302 559.508 682.944L553.793 633.882C553.628 632.464 552.073 631.671 550.828 632.37L536.777 640.259C535.133 641.182 533.242 639.526 533.94 637.774L541.161 619.658C541.628 618.485 540.905 617.178 539.664 616.95L500.722 609.805C498.536 609.404 498.536 606.272 500.722 605.871L539.604 598.737C540.865 598.505 541.586 597.164 541.083 595.985L533.94 579.234C533.215 577.534 534.987 575.844 536.651 576.649L550.906 583.547C552.147 584.147 553.609 583.342 553.765 581.973L559.507 531.475Z" fill="#F2CCA7"/>
<path d="M1749.59 896.516C1749.86 894.15 1753.3 894.15 1753.56 896.516L1758.63 941.179C1758.79 942.573 1760.3 943.375 1761.54 942.729L1772.9 936.832C1774.52 935.991 1776.33 937.582 1775.7 939.296L1770.22 954.246C1769.79 955.415 1770.52 956.687 1771.75 956.904L1807.88 963.301C1810.08 963.691 1810.08 966.85 1807.88 967.24L1771.7 973.645C1770.49 973.859 1769.76 975.102 1770.16 976.263L1775.7 992.428C1776.3 994.194 1774.37 995.752 1772.77 994.79L1761.62 988.074C1760.37 987.324 1758.77 988.112 1758.6 989.556L1753.56 1032.9C1753.29 1035.26 1749.86 1035.26 1749.59 1032.9L1744.54 989.459C1744.38 988.04 1742.82 987.246 1741.57 987.947L1729.31 994.848C1727.67 995.772 1725.78 994.118 1726.47 992.366L1732.85 976.318C1733.32 975.145 1732.6 973.84 1731.36 973.612L1696.7 967.237C1694.51 966.836 1694.51 963.705 1696.7 963.303L1731.3 956.94C1732.56 956.708 1733.28 955.369 1732.78 954.19L1726.47 939.371C1725.75 937.67 1727.52 935.982 1729.19 936.789L1741.65 942.836C1742.89 943.437 1744.36 942.632 1744.51 941.261L1749.59 896.516Z" fill="#F2CCA7"/>
<path d="M879 795.449C879.27 793.084 882.705 793.084 882.974 795.449L888.763 846.274C888.921 847.665 890.424 848.467 891.668 847.824L904.844 841.013C906.465 840.175 908.27 841.768 907.64 843.48L901.378 860.494C900.947 861.663 901.68 862.937 902.907 863.154L943.834 870.373C946.037 870.761 946.037 873.923 943.834 874.312L902.857 881.54C901.646 881.753 900.913 882.998 901.313 884.16L907.633 902.533C908.24 904.298 906.314 905.859 904.713 904.899L891.747 897.122C890.502 896.374 888.9 897.162 888.732 898.605L882.974 947.97C882.699 950.328 879.276 950.328 879.001 947.97L873.231 898.508C873.066 897.091 871.512 896.297 870.267 896.995L856.067 904.956C854.422 905.878 852.532 904.221 853.231 902.47L860.518 884.215C860.986 883.042 860.263 881.734 859.021 881.506L819.738 874.31C817.552 873.909 817.552 870.776 819.738 870.375L858.961 863.189C860.223 862.958 860.944 861.616 860.44 860.437L853.231 843.557C852.505 841.857 854.276 840.166 855.941 840.97L870.345 847.93C871.586 848.529 873.047 847.724 873.203 846.356L879 795.449Z" fill="#F2CCA7"/>
<path d="M1868.97 431.529C1869.24 429.163 1872.68 429.163 1872.95 431.529L1878.96 484.549C1879.12 485.943 1880.62 486.745 1881.87 486.099L1895.6 478.969C1897.22 478.128 1899.02 479.718 1898.4 481.432L1891.88 499.216C1891.45 500.385 1892.18 501.657 1893.41 501.874L1935.89 509.4C1938.09 509.79 1938.09 512.949 1935.89 513.339L1893.36 520.874C1892.15 521.088 1891.42 522.33 1891.82 523.491L1898.39 542.688C1898.99 544.454 1897.06 546.012 1895.47 545.049L1881.95 536.902C1880.7 536.152 1879.09 536.94 1878.93 538.385L1872.95 589.891C1872.67 592.25 1869.25 592.25 1868.97 589.891L1862.98 538.287C1862.82 536.867 1861.26 536.074 1860.01 536.775L1845.22 545.107C1843.58 546.032 1841.68 544.378 1842.38 542.626L1849.96 523.546C1850.43 522.374 1849.7 521.069 1848.46 520.84L1807.69 513.336C1805.5 512.934 1805.5 509.804 1807.69 509.402L1848.4 501.909C1849.66 501.677 1850.38 500.338 1849.88 499.16L1842.38 481.507C1841.65 479.806 1843.43 478.118 1845.09 478.925L1860.09 486.206C1861.33 486.808 1862.8 486.003 1862.95 484.632L1868.97 431.529Z" fill="#F2CCA7"/>
<path d="M1081.18 395.483C1081.45 393.118 1084.89 393.118 1085.15 395.483L1089.5 433.714C1089.66 435.106 1091.16 435.908 1092.41 435.264L1101.96 430.315C1103.58 429.475 1105.39 431.067 1104.76 432.78L1100.07 445.541C1099.64 446.711 1100.37 447.984 1101.6 448.2L1132.86 453.724C1135.06 454.113 1135.06 457.274 1132.86 457.663L1101.55 463.196C1100.34 463.41 1099.61 464.653 1100.01 465.815L1104.75 479.638C1105.36 481.403 1103.43 482.963 1101.83 482.002L1092.49 476.386C1091.24 475.637 1089.64 476.425 1089.47 477.868L1085.15 514.936C1084.88 517.294 1081.46 517.294 1081.18 514.936L1076.85 477.771C1076.69 476.353 1075.13 475.56 1073.89 476.259L1063.56 482.059C1061.92 482.983 1060.03 481.327 1060.72 479.576L1066.18 465.87C1066.65 464.697 1065.93 463.39 1064.69 463.162L1034.72 457.661C1032.53 457.26 1032.53 454.128 1034.72 453.727L1064.63 448.236C1065.89 448.005 1066.61 446.664 1066.11 445.485L1060.72 432.856C1060 431.156 1061.77 429.466 1063.44 430.272L1073.97 435.37C1075.21 435.971 1076.67 435.165 1076.83 433.796L1081.18 395.483Z" fill="#F2CCA7"/>
<path d="M790.5 2143L796.565 2189.55L818 2184.19L802.629 2200.03L818 2215.87L796.565 2210.51L790.5 2271L784.435 2210.51L763 2215.87L778.371 2200.03L763 2184.19L784.435 2189.55L790.5 2143Z" fill="#F2CCA7"/>
<path d="M1814.5 2813L1820.56 2859.55L1842 2854.19L1826.63 2870.03L1842 2885.87L1820.56 2880.51L1814.5 2941L1808.44 2880.51L1787 2885.87L1802.37 2870.03L1787 2854.19L1808.44 2859.55L1814.5 2813Z" fill="#F2CCA7"/>
<path d="M7.5 3166L13.5645 3212.55L35 3207.19L19.629 3223.03L35 3238.87L13.5645 3233.51L7.5 3294L1.43548 3233.51L-20 3238.87L-4.62905 3223.03L-20 3207.19L1.43548 3212.55L7.5 3166Z" fill="#F2CCA7"/>
<path d="M1912.5 3299L1918.56 3345.55L1940 3340.19L1924.63 3356.03L1940 3371.87L1918.56 3366.51L1912.5 3427L1906.44 3366.51L1885 3371.87L1900.37 3356.03L1885 3340.19L1906.44 3345.55L1912.5 3299Z" fill="#F2CCA7"/>
<path d="M1711.5 3406L1717.56 3452.55L1739 3447.19L1723.63 3463.03L1739 3478.87L1717.56 3473.51L1711.5 3534L1705.44 3473.51L1684 3478.87L1699.37 3463.03L1684 3447.19L1705.44 3452.55L1711.5 3406Z" fill="#F2CCA7"/>
<path d="M410.5 1456L416.565 1502.55L438 1497.19L422.629 1513.03L438 1528.87L416.565 1523.51L410.5 1584L404.435 1523.51L383 1528.87L398.371 1513.03L383 1497.19L404.435 1502.55L410.5 1456Z" fill="#F2CCA7"/>
<path d="M1355.5 1456L1361.56 1502.55L1383 1497.19L1367.63 1513.03L1383 1528.87L1361.56 1523.51L1355.5 1584L1349.44 1523.51L1328 1528.87L1343.37 1513.03L1328 1497.19L1349.44 1502.55L1355.5 1456Z" fill="#F2CCA7"/>
<path d="M585.5 3315L591.565 3361.55L613 3356.19L597.629 3372.03L613 3387.87L591.565 3382.51L585.5 3443L579.435 3382.51L558 3387.87L573.371 3372.03L558 3356.19L579.435 3361.55L585.5 3315Z" fill="#F2CCA7"/>
<path d="M1105.5 2287L1111.56 2333.55L1133 2328.19L1117.63 2344.03L1133 2359.87L1111.56 2354.51L1105.5 2415L1099.44 2354.51L1078 2359.87L1093.37 2344.03L1078 2328.19L1099.44 2333.55L1105.5 2287Z" fill="#F2CCA7"/>
<path d="M121.5 2511L127.565 2557.55L149 2552.19L133.629 2568.03L149 2583.87L127.565 2578.51L121.5 2639L115.435 2578.51L94 2583.87L109.371 2568.03L94 2552.19L115.435 2557.55L121.5 2511Z" fill="#F2CCA7"/>
<path d="M735.5 2615L741.565 2661.55L763 2656.19L747.629 2672.03L763 2687.87L741.565 2682.51L735.5 2743L729.435 2682.51L708 2687.87L723.371 2672.03L708 2656.19L729.435 2661.55L735.5 2615Z" fill="#F2CCA7"/>
<path d="M287.5 3552L293.565 3598.55L315 3593.19L299.629 3609.03L315 3624.87L293.565 3619.51L287.5 3680L281.435 3619.51L260 3624.87L275.371 3609.03L260 3593.19L281.435 3598.55L287.5 3552Z" fill="#F2CCA7"/>
<path d="M130.5 636L136.565 682.549L158 677.188L142.629 693.03L158 708.871L136.565 703.51L130.5 764L124.435 703.51L103 708.871L118.371 693.03L103 677.188L124.435 682.549L130.5 636Z" fill="#F2CCA7"/>
<path d="M1796.5 1290L1802.56 1336.55L1824 1331.19L1808.63 1347.03L1824 1362.87L1802.56 1357.51L1796.5 1418L1790.44 1357.51L1769 1362.87L1784.37 1347.03L1769 1331.19L1790.44 1336.55L1796.5 1290Z" fill="#F2CCA7"/>
<path d="M1661.5 629L1667.56 675.549L1689 670.188L1673.63 686.03L1689 701.871L1667.56 696.51L1661.5 757L1655.44 696.51L1634 701.871L1649.37 686.03L1634 670.188L1655.44 675.549L1661.5 629Z" fill="#F2CCA7"/>
<path d="M1370.5 488L1376.56 534.549L1398 529.188L1382.63 545.03L1398 560.871L1376.56 555.51L1370.5 616L1364.44 555.51L1343 560.871L1358.37 545.03L1343 529.188L1364.44 534.549L1370.5 488Z" fill="#F2CCA7"/>
<path d="M254.5 424L260.565 470.549L282 465.188L266.629 481.03L282 496.871L260.565 491.51L254.5 552L248.435 491.51L227 496.871L242.371 481.03L227 465.188L248.435 470.549L254.5 424Z" fill="#F2CCA7"/>
<path d="M260.186 3277.21L270.482 3336.75L314.399 3346.97L270.402 3356.83L260.186 3448.21L250.318 3356.76L206.4 3346.54L250.397 3336.67L260.186 3277.21Z" fill="#F2CCA7"/>
<path d="M1421.19 2301.21L1431.48 2360.75L1475.4 2370.97L1431.4 2380.83L1421.19 2472.21L1411.32 2380.76L1367.4 2370.54L1411.4 2360.67L1421.19 2301.21Z" fill="#F2CCA7"/>
<path d="M610.186 1775.21L620.482 1834.75L664.399 1844.97L620.402 1854.83L610.186 1946.21L600.318 1854.76L556.4 1844.54L600.397 1834.67L610.186 1775.21Z" fill="#F2CCA7"/>
<path d="M1644.19 1641.21L1654.48 1700.75L1698.4 1710.97L1654.4 1720.83L1644.19 1812.21L1634.32 1720.76L1590.4 1710.54L1634.4 1700.67L1644.19 1641.21Z" fill="#F2CCA7"/>
<path d="M880.186 1456.21L890.482 1515.75L934.399 1525.97L890.402 1535.83L880.186 1627.21L870.318 1535.76L826.4 1525.54L870.397 1515.67L880.186 1456.21Z" fill="#F2CCA7"/>
<path d="M849.647 488.158L857.337 532.632L890.143 540.263L857.278 547.635L849.647 615.892L842.275 547.576L809.47 539.945L842.335 532.573L849.647 488.158Z" fill="#F2CCA7"/>
<path d="M382.476 837.158L390.167 881.632L422.972 889.263L390.107 896.635L382.476 964.892L375.105 896.576L342.299 888.945L375.164 881.573L382.476 837.158Z" fill="#F2CCA7"/>
<path d="M42.4762 391.158L50.1666 435.632L82.9724 443.263L50.1074 450.635L42.4762 518.892L35.1046 450.576L2.29883 442.945L35.1638 435.573L42.4762 391.158Z" fill="#F2CCA7"/>
<path d="M626.476 1214.16L634.167 1258.63L666.972 1266.26L634.107 1273.64L626.476 1341.89L619.105 1273.58L586.299 1265.94L619.164 1258.57L626.476 1214.16Z" fill="#F2CCA7"/>
<path d="M432.186 2393.21L442.482 2452.75L486.399 2462.97L442.402 2472.83L432.186 2564.21L422.318 2472.76L378.4 2462.54L422.397 2452.67L432.186 2393.21Z" fill="#F2CCA7"/>
<path d="M444.55 2069.18L453.394 2120.33L491.122 2129.11L453.326 2137.58L444.55 2216.08L436.072 2137.51L398.344 2128.74L436.14 2120.26L444.55 2069.18Z" fill="#F2CCA7"/>
<path d="M1581.19 2727.21L1591.48 2786.75L1635.4 2796.97L1591.4 2806.83L1581.19 2898.21L1571.32 2806.76L1527.4 2796.54L1571.4 2786.67L1581.19 2727.21Z" fill="#F2CCA7"/>
<path d="M1463.92 3252.16L1471.5 3296.01L1503.85 3303.54L1471.44 3310.81L1463.92 3378.12L1456.65 3310.75L1424.29 3303.23L1456.7 3295.96L1463.92 3252.16Z" fill="#F2CCA7"/>
<path d="M344.186 2813.21L354.482 2872.75L398.399 2882.97L354.402 2892.83L344.186 2984.21L334.318 2892.76L290.4 2882.54L334.397 2872.67L344.186 2813.21Z" fill="#F2CCA7"/>
<path d="M1079.19 2680.21L1089.48 2739.75L1133.4 2749.97L1089.4 2759.83L1079.19 2851.21L1069.32 2759.76L1025.4 2749.54L1069.4 2739.67L1079.19 2680.21Z" fill="#F2CCA7"/>
<path d="M1289.19 2984.21L1299.48 3043.75L1343.4 3053.97L1299.4 3063.83L1289.19 3155.21L1279.32 3063.76L1235.4 3053.54L1279.4 3043.67L1289.19 2984.21Z" fill="#F2CCA7"/>
<path d="M719.186 2995.21L729.482 3054.75L773.399 3064.97L729.402 3074.83L719.186 3166.21L709.318 3074.76L665.4 3064.54L709.397 3054.67L719.186 2995.21Z" fill="#F2CCA7"/>
<path d="M51.1864 2116.21L61.4817 2175.75L105.399 2185.97L61.4024 2195.83L51.1864 2287.21L41.3179 2195.76L-2.59974 2185.54L41.3972 2175.67L51.1864 2116.21Z" fill="#F2CCA7"/>
<path d="M1815.19 2444.21L1825.48 2503.75L1869.4 2513.97L1825.4 2523.83L1815.19 2615.21L1805.32 2523.76L1761.4 2513.54L1805.4 2503.67L1815.19 2444.21Z" fill="#F2CCA7"/>
<path d="M41 990L44.1615 1003.84L58 1007L44.1615 1010.16L41 1024L37.8385 1010.16L24 1007L37.8385 1003.84L41 990Z" fill="#D4C9A5"/>
</g>
<defs>
<clipPath id="clip0_302_1141">
<rect width="4055" height="1920" fill="white" transform="translate(0 4055) rotate(-90)"/>
</clipPath>
</defs>
</svg>
