<svg width="353" height="345" viewBox="0 0 353 345" fill="none" xmlns="http://www.w3.org/2000/svg">
<path d="M19.3867 0C21.8328 8.40277 29.5899 14.543 38.7822 14.543C47.9745 14.543 55.7317 8.40277 58.1777 0H75.1357C77.5818 8.40267 85.3391 14.5428 94.5312 14.543C103.723 14.543 111.481 8.40268 113.927 0H130.886C133.332 8.4027 141.089 14.543 150.281 14.543C159.473 14.5429 167.231 8.4027 169.677 0H192.291C194.737 8.40269 202.494 14.543 211.687 14.543C220.879 14.5428 228.636 8.40268 231.082 0H256.928C259.374 8.40273 267.131 14.543 276.323 14.543C285.516 14.543 293.273 8.40273 295.719 0H301.37C301.37 11.1556 310.414 20.1992 321.569 20.1992C332.403 20.1991 341.244 11.6698 341.745 0.959961C347.886 3.19542 352.271 9.08587 352.271 16V29.8945C341.116 29.8947 332.072 38.9382 332.072 50.0938C332.072 61.0749 340.836 70.0094 351.75 70.2861L352.271 70.293V85.6445C341.116 85.6447 332.072 94.6874 332.072 105.843C332.072 116.998 341.116 126.042 352.271 126.042V141.394C341.116 141.394 332.072 150.437 332.072 161.593C332.072 172.574 340.836 181.508 351.75 181.785L352.271 181.792V202.799C341.116 202.799 332.072 211.842 332.072 222.998C332.072 234.153 341.116 243.196 352.271 243.196V267.436C341.116 267.436 332.072 276.479 332.072 287.635C332.072 298.616 340.836 307.55 351.75 307.827L352.271 307.834V329C352.271 336.07 347.685 342.068 341.325 344.184C339.386 335.418 331.279 328.841 321.569 328.841C311.561 328.841 303.254 335.829 301.651 345H278.918C276.676 336.637 268.768 330.457 259.356 330.457C249.945 330.457 242.036 336.637 239.794 345H216.253C214.65 335.829 206.343 328.841 196.335 328.841C186.326 328.841 178.02 335.829 176.417 345H152.068C149.826 336.637 141.918 330.457 132.506 330.457C123.094 330.457 115.186 336.637 112.943 345H96.3184C94.076 336.637 86.1685 330.457 76.7568 330.457C67.345 330.457 59.4367 336.637 57.1943 345H43.3486C41.7457 335.829 33.4391 328.841 23.4307 328.841C15.1311 328.841 8.0015 333.647 4.89453 340.518C1.87717 337.608 0 333.523 0 329V292.337C10.0127 291.139 17.7754 282.618 17.7754 272.283C17.7753 261.948 10.0127 253.427 0 252.229V227.7C10.0127 226.503 17.7754 217.982 17.7754 207.646C17.7754 197.311 10.0128 188.789 0 187.592V166.295C10.0127 165.097 17.7754 156.576 17.7754 146.241C17.7754 135.906 10.0128 127.384 0 126.187V110.545C10.0126 109.347 17.7752 100.827 17.7754 90.4922C17.7754 80.1569 10.0128 71.635 0 70.4375V54.7959C10.0127 53.5984 17.7754 45.0775 17.7754 34.7422C17.7753 24.4251 10.04 15.9154 0.0527344 14.6943C0.717092 6.46847 7.60304 1.38528e-07 16 0H19.3867Z" fill="#4E593E"/>
</svg>
