<svg width="53" height="44" viewBox="0 0 53 44" fill="none" xmlns="http://www.w3.org/2000/svg">
<path d="M51.5426 14.7C51.3549 14.4805 51.1218 14.3042 50.8594 14.1834C50.597 14.0625 50.3115 14 50.0226 14H38.0226V6C38.0226 4.4087 37.3905 2.88258 36.2653 1.75736C35.1401 0.632141 33.6139 0 32.0226 0H20.0226C18.4313 0 16.9052 0.632141 15.78 1.75736C14.6548 2.88258 14.0226 4.4087 14.0226 6V14H2.02265C1.73274 13.9967 1.44558 14.0565 1.18108 14.1752C0.916568 14.2939 0.681033 14.4687 0.490789 14.6875C0.300546 14.9063 0.160142 15.1638 0.0793078 15.4423C-0.00152678 15.7207 -0.02086 16.0134 0.0226476 16.3L3.78265 40.6C3.92729 41.5538 4.41178 42.4232 5.14684 43.048C5.88189 43.6728 6.81799 44.0109 7.78265 44H44.3026C45.2673 44.0109 46.2034 43.6728 46.9385 43.048C47.6735 42.4232 48.158 41.5538 48.3026 40.6L52.0226 16.3C52.0627 16.0145 52.0405 15.7237 51.9577 15.4475C51.8748 15.1713 51.7333 14.9163 51.5426 14.7ZM18.0226 6C18.0226 5.46957 18.2334 4.96086 18.6084 4.58579C18.9835 4.21071 19.4922 4 20.0226 4H32.0226C32.5531 4 33.0618 4.21071 33.4369 4.58579C33.8119 4.96086 34.0226 5.46957 34.0226 6V14H18.0226V6ZM44.3026 40H7.74265L4.36265 18H47.6826L44.3026 40Z" fill="#CEC4A0"/>
</svg>
