<svg width="28" height="27" viewBox="0 0 28 27" fill="none" xmlns="http://www.w3.org/2000/svg">
<path d="M27.0942 25.3338L19.7782 18.0178C21.5363 15.9072 22.413 13.2 22.2259 10.4595C22.0389 7.71897 20.8024 5.15606 18.7739 3.30393C16.7453 1.4518 14.0807 0.453054 11.3345 0.515453C8.58835 0.577851 5.97193 1.69659 4.02957 3.63895C2.08722 5.5813 0.968476 8.19772 0.906078 10.9439C0.843679 13.6901 1.84243 16.3547 3.69456 18.3832C5.54668 20.4118 8.10959 21.6482 10.8501 21.8353C13.5906 22.0224 16.2978 21.1457 18.4084 19.3876L25.7244 26.7036L27.0942 25.3338ZM2.87546 11.2036C2.87546 9.47918 3.38681 7.7935 4.34484 6.35971C5.30287 4.92592 6.66455 3.80841 8.25769 3.14851C9.85083 2.48861 11.6039 2.31595 13.2952 2.65237C14.9864 2.98878 16.54 3.81916 17.7593 5.0385C18.9786 6.25784 19.809 7.81137 20.1454 9.50264C20.4819 11.1939 20.3092 12.947 19.6493 14.5401C18.9894 16.1333 17.8719 17.4949 16.4381 18.453C15.0043 19.411 13.3186 19.9223 11.5942 19.9223C9.28264 19.9198 7.06649 19.0004 5.43196 17.3658C3.79743 15.7313 2.87803 13.5152 2.87546 11.2036Z" fill="#D1C290"/>
</svg>
