<svg width="1217" height="663" viewBox="0 0 1217 663" fill="none" xmlns="http://www.w3.org/2000/svg">
<circle cx="444.5" cy="375.5" r="26.5" fill="#D9D9D9"/>
<path d="M809.259 182.12C813.404 192.595 816.017 195.386 821.127 200.687L797.958 202.402C801.965 196.715 804.309 193.268 800.171 182.89C798.374 178.113 796.363 173.064 794.594 168.671C793.701 172.202 792.144 178.478 789.849 187.793C787.725 196.807 786.087 203.281 776.034 204.026L775.939 204.033L760.429 205.181C764.702 199.185 766.971 196.033 769.624 185.055C772.702 172.025 776.653 155.175 778.567 147.236C781.429 135.183 790.333 134.524 794.946 146.119C798.002 153.594 804.632 170.334 809.259 182.12ZM788.179 187.339C791.144 175.376 792.843 168.415 793.424 165.869C792.577 163.526 791.758 161.565 791.158 159.973C785.844 146.697 780.386 147.101 777.085 161.015C775.922 166.107 773.478 176.01 771.443 184.921C770.102 190.218 770.166 193.679 771.138 196.399C772.744 201.189 778.563 203.068 782.569 199.98C785.75 197.434 786.779 193.123 788.179 187.339Z" fill="#D1C290"/>
<path d="M750.323 191.387L729.408 181.273C735.256 178.662 739.359 177.234 742.828 170.061C746.255 162.974 743.464 156.399 736.619 151.809C733.89 153.262 731.162 154.715 728.731 155.992C723.145 158.943 719.868 161.09 718.99 162.905C718.864 163.164 718.739 163.423 718.742 163.638C718.544 164.929 719.76 165.943 721.107 167.127C722.757 168.565 724.884 170.341 723.631 172.933C723.129 173.971 722.365 174.668 721.34 175.025C718.817 175.831 715.536 174.457 713.116 173.287L693.065 163.59C699.724 160.626 703.395 158.989 708.327 148.791L719.236 126.234C724.168 116.036 723.214 112.055 721.403 104.995L742.318 115.109C735.659 118.074 731.946 119.797 727.014 129.996L716.105 152.552C713.012 158.948 712.291 162.864 712.557 166.725C712.764 169.384 714.384 171.767 716.717 172.896C717.409 173.23 718.27 173.434 719.087 173.509C719.689 173.587 720.247 173.536 720.759 173.358C721.359 173.221 721.782 172.786 722.075 172.181C722.66 170.971 721.832 170.038 719.964 168.388C718.444 167.12 716.749 165.553 716.936 163.404C717.016 163.017 717.097 162.629 717.264 162.283C718.351 160.036 721.799 157.758 727.981 154.456C737.148 149.612 748.746 143.491 754.204 140.585C757.615 138.823 759.775 136.562 760.945 134.142C762.366 131.203 762.366 127.897 761.59 124.43L776.196 131.493C776.196 131.493 768.556 134.943 766.083 136.307C760.241 139.346 749.07 145.247 738.623 150.752C750.176 157.513 755.003 165.392 750.865 173.948C747.313 181.294 748.825 185.224 750.323 191.387Z" fill="#D1C290"/>
<path d="M685.186 93.7337C676.008 90.3214 670.042 94.2484 666.769 101.123C666.054 102.496 665.428 103.902 664.759 105.702C662.919 110.651 662.908 114.538 667.947 116.412C668.667 116.679 669.42 116.857 670.263 117.068C672.523 117.601 674.693 118.101 676.493 118.77C678.473 119.506 679.992 120.378 680.614 121.736C680.953 122.476 681.012 123.42 680.711 124.23C680.61 124.5 680.453 124.646 680.353 124.916C679.862 125.962 679.111 126.605 678.223 126.787C677.426 127.003 676.55 126.882 675.65 126.547C674.48 126.112 673.197 125.431 671.768 124.592C670.575 123.944 669.382 123.295 668.212 122.86C663.443 121.087 658.895 121.752 656.118 129.22L656.028 129.187C655.392 130.897 654.914 132.46 654.592 133.876C652.579 141.219 654.531 148.09 663.709 151.502C679.636 157.424 684.602 153.432 692.786 146.847L687.132 162.054L634.132 142.35C640.482 138.77 643.982 136.794 647.929 126.176C650.472 119.337 657.008 118.285 661.695 118.901C663.392 119.02 664.956 119.499 666.485 120.068C668.825 120.937 670.851 122.1 672.64 123.073C673.979 123.878 675.139 124.616 676.218 125.018C676.758 125.218 677.332 125.329 677.792 125.193C678.162 125.023 678.476 124.73 678.8 124.134C678.867 123.954 679.024 123.807 679.091 123.627C679.325 122.998 679.155 122.627 679.009 122.47C678.67 121.73 677.51 120.991 675.981 120.423C674.271 119.787 672.011 119.254 669.841 118.755C667.671 118.255 665.501 117.756 663.792 117.12C663.072 116.852 662.475 116.528 661.879 116.204C656.904 113.331 654.654 108.09 656.661 102.691C660.608 92.0728 659.283 88.2001 656.814 81.3419L709.814 101.046L704.127 116.343C702.232 106.011 701.113 99.6551 685.186 93.7337Z" fill="#D1C290"/>
<path d="M588.444 76.1156L649.33 79.1134L648.528 95.4136C647.822 94.1294 647.207 92.9457 646.497 91.7574C643.228 85.9255 637.26 80.2492 631.986 79.9895C627.096 79.7487 622.933 84.2535 622.263 97.869L621.031 122.895C620.474 134.209 622.816 137.4 627.24 143.193L604.036 142.05C609.008 136.72 611.748 133.779 612.305 122.465L613.538 97.4394C614.208 83.8239 610.508 78.932 605.618 78.6912C600.344 78.4316 593.848 83.4942 589.925 88.972C589.198 90.0895 588.47 91.2071 587.641 92.4158L588.444 76.1156Z" fill="#D1C290"/>
<path d="M564.431 82.3172L580.105 77.7719C577.138 84.4297 575.531 88.1943 578.686 99.0741L589.22 135.402C590.798 140.841 590.199 142.914 588.816 143.315C587.064 143.823 583.957 141.726 582.039 140.283L533.406 103.209L542.79 135.571C545.945 146.451 549.29 148.68 555.359 152.717L539.685 157.263C542.652 150.605 544.286 146.932 541.131 136.053L534.152 111.988C530.997 101.108 527.626 98.7875 521.557 94.7499L532.529 91.5682L575.647 124.444C577.684 125.953 580.898 128.419 582.65 127.911C584.033 127.51 584.512 125.372 582.828 119.563L577.026 99.5553C573.871 88.6756 570.499 86.3548 564.431 82.3172Z" fill="#D1C290"/>
<path d="M480.201 113.003L500.935 102.522C499.249 109.614 498.364 113.61 503.475 123.72L514.778 146.082C519.889 156.191 523.588 157.764 530.298 160.611L509.564 171.091C511.25 164 512.178 160.089 507.067 149.979L495.764 127.618C490.654 117.508 486.911 115.85 480.201 113.003Z" fill="#D1C290"/>
<path d="M457.843 128.97L470.681 119.856C470.101 127.332 469.811 131.069 473.272 141.916C477.32 154.583 482.628 171.182 485.117 178.834C486.941 184.72 486.08 188.981 483.497 190.814C480.913 192.648 476.608 192.055 471.652 188.392C470.015 187.081 458.657 178.544 454.816 175.62C457.724 184.858 460.334 193.012 461.241 195.782C463.143 201.613 462.283 205.874 459.699 207.708C457.116 209.542 452.81 208.949 447.855 205.285C441.396 200.333 427.043 189.567 416.933 181.792C407.969 174.97 404.345 174.011 397.175 172.037L416.119 158.589C415.804 163.286 415.615 166.834 418.338 170.67C419.616 172.471 421.563 174.385 424.369 176.513C431.562 182.003 439.736 188.209 443.878 191.39C449.624 195.67 453.526 197.021 455.561 195.576C457.518 194.187 457.608 190.002 455.385 183.222C454.976 181.982 453.859 178.418 452.444 173.772C448.603 170.848 444.627 167.901 440.975 165.078C438.525 163.286 436.656 161.316 435.267 159.359C430.988 153.331 431.608 147.24 436.227 143.961C436.697 143.628 437.088 143.35 437.613 143.095C439.055 142.307 441.679 141.857 444.291 145.536C445.235 146.867 446.279 148.834 447.13 151.526C448.014 154.43 449.098 157.781 450.182 161.132C452.554 162.981 459.335 168.056 460.371 168.851C459.176 165.344 457.263 159.167 454.411 150.007C451.702 141.216 449.757 134.827 457.843 128.97ZM438.222 144.782C436.97 145.671 436.338 147.767 438.672 151.055C439.895 152.777 441.953 154.848 445.06 157.234C445.962 158.006 446.886 158.645 447.732 159.34C447.025 157.016 446.239 154.749 445.565 152.637C444.68 149.733 443.693 147.844 442.803 146.592C440.747 143.695 438.927 144.282 438.222 144.782ZM471.785 142.972C470.645 139.542 469.481 137.072 468.203 135.272C467.536 134.333 466.768 133.583 466.056 132.911C463.406 130.671 459.545 130.705 456.962 132.538C455.866 133.316 454.992 134.407 454.475 135.834C453.013 139.58 454.362 143.802 456.075 149.532C459.802 161.25 461.947 168.086 462.687 170.621C464.702 172.134 466.395 173.522 467.754 174.442C473.421 178.777 477.323 180.128 479.358 178.683C481.316 177.293 481.406 173.109 479.261 166.273C477.679 161.391 474.516 151.628 471.785 142.972Z" fill="#D1C290"/>
<path d="M443.952 588.041C463.632 590.057 473.52 595.625 473.52 607.721C473.52 617.993 462.096 625.193 441.84 625.193C429.744 625.193 417.264 620.393 412.656 617.801V601.577C419.184 612.809 425.712 623.465 441.072 623.465C455.088 623.465 465.744 616.649 465.744 609.353C465.744 600.905 455.184 597.929 440.688 596.489C421.968 594.665 412.656 590.057 412.656 578.441C412.656 567.785 423.696 559.721 443.28 559.721C454.704 559.721 467.184 564.521 471.792 567.113V583.433C465.264 572.201 458.16 561.449 443.28 561.449C430.704 561.449 420.432 568.169 420.432 575.945C420.432 584.105 430.704 586.697 443.952 588.041Z" fill="#D1C290"/>
<path d="M796.717 581.977V607.033C796.717 618.361 799.309 621.433 804.013 627.001H780.781C785.485 621.433 787.981 618.361 787.981 607.033V582.361C787.981 574.009 786.829 564.409 778.189 564.409C773.197 564.409 771.469 567.769 771.469 570.937C771.469 571.321 771.469 571.801 771.565 572.281C772.141 575.641 773.869 578.329 775.501 581.305C779.533 588.409 781.261 595.993 781.261 602.905C781.261 616.249 774.925 627.193 767.437 627.193C763.213 627.193 760.045 624.217 758.221 618.361C755.725 610.585 745.741 578.713 745.261 577.561C745.165 578.809 745.165 580.345 745.165 581.977V607.033C745.165 618.361 747.757 621.433 752.461 627.001H736.141C740.845 621.433 743.437 618.361 743.437 607.033V581.977C743.437 570.649 740.845 567.481 736.141 561.913H749.581C749.581 561.913 761.677 600.505 763.021 604.729C765.133 611.545 767.629 615.001 771.373 615.001C775.021 615.001 777.325 610.873 778.093 608.281C778.861 605.689 779.149 603.001 779.149 600.505C779.149 593.113 776.461 586.297 774.061 582.169C772.237 579.289 770.413 576.313 769.837 572.569C769.741 571.801 769.645 571.033 769.645 570.361C769.645 567.385 770.797 564.889 772.909 563.353C774.445 562.201 776.269 561.913 778.285 561.913H804.013C799.309 567.481 796.717 570.649 796.717 581.977Z" fill="#D1C290"/>
<path d="M519.307 594.985V611.689C519.307 619.241 521.035 621.289 524.107 625.001H508.619C511.755 621.289 513.483 619.241 513.483 611.689V603.881H511.947C503.563 603.881 499.147 605.929 498.699 609.961C498.635 610.345 498.635 610.729 498.635 611.113C498.635 613.545 499.595 615.785 500.491 617.705C501.131 619.305 501.771 620.649 501.771 621.865C501.771 622.889 501.451 623.657 500.875 624.233C500.043 624.937 499.019 625.001 498.571 625.001H483.531C486.667 621.289 488.395 619.241 488.395 611.689V594.985C488.395 587.433 486.667 585.321 483.531 581.609H499.019C495.883 585.321 494.219 587.433 494.219 594.985V611.689C494.219 617.193 495.051 619.881 496.843 622.249C497.675 623.337 498.379 623.785 499.083 623.785C499.275 623.785 499.531 623.785 499.723 623.657C499.851 623.593 499.979 623.465 500.043 623.401C500.427 623.081 500.619 622.569 500.619 621.865C500.619 620.905 500.043 619.625 499.403 618.217C498.507 616.233 497.483 613.737 497.483 611.049C497.483 610.665 497.483 610.217 497.547 609.833C498.059 605.161 502.923 602.729 511.947 602.729H513.483V594.985C513.483 587.433 511.755 585.321 508.619 581.609H524.107C521.035 585.321 519.307 587.433 519.307 594.985ZM546.947 581.481C559.683 581.481 567.363 591.273 567.363 603.305C567.363 615.401 559.683 625.129 546.947 625.129C534.147 625.129 526.531 615.401 526.531 603.305C526.531 591.273 534.147 581.481 546.947 581.481ZM546.947 623.977C555.011 623.977 561.539 614.761 561.539 603.305C561.539 591.913 555.011 582.633 546.947 582.633C538.883 582.633 532.291 591.913 532.291 603.305C532.291 614.761 538.883 623.977 546.947 623.977ZM615.685 581.609H626.565C623.365 585.449 621.701 587.433 619.461 594.601C616.773 603.049 613.253 614.121 611.589 619.241C610.373 623.145 608.261 625.129 606.149 625.129C604.037 625.129 601.925 623.145 600.645 619.241C600.069 617.385 598.341 611.945 596.421 605.801C594.437 611.945 592.709 617.385 592.133 619.241C590.917 623.145 588.805 625.129 586.693 625.129C584.581 625.129 582.469 623.145 581.189 619.241C579.589 614.057 576.005 602.665 573.445 594.537C571.205 587.433 569.605 585.449 566.469 581.609H581.957C579.973 584.105 578.501 585.897 578.501 589.033C578.501 590.505 578.821 592.297 579.525 594.537C581.317 600.297 583.365 606.889 584.389 610.153C585.861 614.697 587.461 616.937 589.125 616.937C590.725 616.937 592.389 614.697 593.797 610.153C594.053 609.321 594.821 606.953 595.845 603.881C594.885 600.809 593.861 597.673 592.965 594.729C592.325 592.809 592.069 591.017 592.069 589.417C592.069 584.489 594.757 581.417 598.533 581.417C598.917 581.417 599.237 581.417 599.621 581.481C600.709 581.609 602.309 582.377 602.309 585.385C602.309 586.473 602.117 587.945 601.541 589.737C600.901 591.657 600.197 593.897 599.493 596.137C601.477 602.537 603.461 608.809 603.909 610.153C605.317 614.697 606.917 616.937 608.581 616.937C610.181 616.937 611.845 614.697 613.253 610.153C614.341 606.889 616.389 600.425 618.245 594.601C618.949 592.361 619.269 590.633 619.269 589.161C619.269 585.897 617.733 584.105 615.685 581.609ZM598.213 592.041C598.405 592.809 598.661 593.513 598.853 594.217C599.365 592.681 599.877 591.145 600.325 589.737C600.901 587.881 601.157 586.473 601.157 585.449C601.157 583.017 599.877 582.633 599.301 582.633C598.277 582.633 597.125 583.529 597.125 586.281C597.125 587.689 597.445 589.545 598.213 592.041ZM671.59 625.065H656.102C658.79 621.801 660.838 619.753 660.838 614.441C660.838 608.297 655.974 605.033 648.87 605.033C646.246 605.033 644.518 605.865 643.046 605.865C642.534 605.865 642.086 605.737 641.638 605.481C640.998 605.097 640.806 604.265 640.806 603.305C640.806 602.409 641.062 601.769 641.574 601.321C642.086 600.873 642.79 600.681 643.686 600.681C644.582 600.681 645.606 600.873 646.758 601.065C648.294 601.321 650.022 601.577 651.814 601.577C658.854 601.577 663.91 598.377 663.91 592.169C663.91 585.705 658.854 582.761 651.814 582.761H648.23C643.302 582.761 641.126 585.385 640.294 589.033C639.91 590.569 639.782 592.489 639.782 594.985V611.689C639.782 619.241 641.446 621.289 644.582 625.001H629.094C632.23 621.289 633.958 619.241 633.958 611.689V594.985C633.958 587.433 632.23 585.321 629.094 581.609H651.814C663.014 581.609 669.734 585.065 669.734 592.169C669.734 599.401 663.014 602.729 651.814 602.729C649.894 602.729 648.166 602.473 646.566 602.217C645.414 602.025 644.39 601.833 643.622 601.833C643.046 601.833 642.598 601.961 642.342 602.153C642.086 602.409 641.958 602.729 641.958 603.305C641.958 603.945 642.086 604.393 642.406 604.585C642.534 604.713 642.726 604.777 642.982 604.777C644.006 604.777 645.798 603.881 648.87 603.881C660.07 603.881 666.79 607.209 666.79 614.441C666.79 619.881 668.838 621.801 671.59 625.065ZM717.483 581.481C730.219 581.481 737.899 591.273 737.899 603.305C737.899 615.401 730.219 625.129 717.483 625.129C713.067 625.129 709.163 623.977 706.027 621.993C702.891 623.977 699.051 625.129 694.635 625.129C681.835 625.129 674.219 615.401 674.219 603.305C674.219 591.273 681.835 581.481 694.635 581.481C699.115 581.481 702.955 582.697 706.027 584.745C709.163 582.697 713.003 581.481 717.483 581.481ZM694.635 623.977C697.835 623.977 700.907 622.441 703.339 619.817C700.011 616.617 697.899 612.265 697.323 607.209C697.195 605.353 696.299 604.969 695.211 604.969C694.507 604.969 693.739 605.097 693.099 605.225C692.395 605.289 691.435 605.417 690.539 605.417C689.067 605.417 687.787 605.033 687.787 603.305C687.787 601.449 689.067 601.001 690.475 601.001C691.371 601.001 692.267 601.193 692.907 601.321C693.355 601.385 693.867 601.449 694.315 601.449C695.659 601.449 697.003 601.065 697.323 599.465C698.027 594.473 700.139 590.057 703.467 586.857C701.035 584.233 697.963 582.633 694.635 582.633C686.571 582.633 679.979 591.913 679.979 603.305C679.979 614.761 686.571 623.977 694.635 623.977ZM706.027 590.441C704.619 593.001 703.595 596.073 703.147 599.465C702.699 602.153 699.307 602.729 696.427 602.729C694.827 602.729 693.355 602.537 692.715 602.473C692.075 602.345 691.179 602.153 690.411 602.153C689.579 602.153 688.939 602.409 688.939 603.305C688.939 604.073 689.643 604.329 690.475 604.329C691.307 604.329 692.267 604.137 692.971 604.073C693.547 604.009 694.763 603.817 696.235 603.817C699.051 603.817 702.699 604.521 703.275 608.105C703.787 611.049 704.747 613.801 706.027 616.105C707.371 613.801 708.331 611.049 708.843 608.105C709.419 604.521 713.067 603.817 715.883 603.817C717.355 603.817 718.571 604.009 719.147 604.073C719.851 604.137 720.811 604.329 721.579 604.329C722.411 604.329 723.115 604.073 723.115 603.305C723.115 602.409 722.475 602.153 721.643 602.153C720.939 602.153 720.043 602.345 719.403 602.473C718.763 602.537 717.291 602.729 715.691 602.729C712.811 602.729 709.355 602.153 708.971 599.465C708.523 596.073 707.499 593.001 706.027 590.441ZM717.483 623.977C725.547 623.977 732.075 614.761 732.075 603.305C732.075 591.913 725.547 582.633 717.483 582.633C714.155 582.633 711.083 584.233 708.651 586.857C711.915 590.057 714.027 594.473 714.795 599.465C715.051 601.065 716.459 601.449 717.803 601.449C718.251 601.449 718.763 601.385 719.211 601.321C719.851 601.193 720.747 601.001 721.643 601.001C723.051 601.001 724.331 601.449 724.331 603.305C724.331 605.033 722.987 605.417 721.515 605.417C720.683 605.417 719.723 605.289 719.019 605.225C718.379 605.097 717.611 604.969 716.907 604.969C715.819 604.969 714.923 605.353 714.795 607.209C714.219 612.265 712.107 616.617 708.779 619.817C711.211 622.441 714.283 623.977 717.483 623.977Z" fill="#D1C290"/>
<path d="M554.568 428.362H624.068L638.568 440.862L603.068 463.862C576.268 469.462 533.901 458.862 516.068 452.862H504.568C485.368 447.262 492.901 439.195 499.068 435.862C495.735 437.529 489.268 438.362 490.068 428.362C490.868 418.362 502.068 424.195 507.568 428.362C506.401 427.029 503.068 422.462 499.068 414.862C498.845 414.438 498.641 414.061 498.455 413.725C494.864 407.254 497.82 416.333 498.455 413.725C498.526 413.431 498.568 412.99 498.568 412.362C498.568 405.862 513.068 414.362 520.068 418.862C525.668 422.462 545.401 426.695 554.568 428.362Z" fill="#566842"/>
<path d="M443 250.157C483 188.824 597.8 93.5565 737 203.156C740.333 206.49 754 213.957 782 217.157C778.666 221.824 769.6 232.357 760 237.157C769 243.491 791.4 267.957 809 315.156L790 298.156C799 309.156 815.4 341.556 809 383.156C810 390.823 817.2 406.357 838 407.157C837.333 412.157 830.599 423.157 809 427.157L797 435.157C792.667 454.157 777.8 495.357 753 508.157C755.333 501.157 758.6 484.957 753 476.157C753.333 492.491 743.4 526.357 701 531.157L726 501.157L666 537.157C633.333 547.824 562.8 568.557 542 566.157C554.667 557.491 578.199 536.957 571 524.157C563.666 540.491 534.799 568.957 478 552.157C468 548.157 439.8 530.157 407 490.157C420.999 491.824 448.998 494.157 449 490.157C449 485.157 415 479.156 394 397.156C418.333 420.823 471.2 467.157 488 463.157L502 468.157L492 430.157C504.334 441.824 537.4 468.757 571 483.157L593 490.157C588 481.491 577.8 455.356 577 420.156C595 437.156 638 473.557 666 483.157C682 481.824 714.599 474.757 717 457.157H681C686 454.157 764 432.356 772 397.156C761.53 413.156 728.672 446.357 681 451.157C676.466 459.491 665.718 476.157 659 476.157C652.282 476.157 634.868 459.491 627 451.157L644 440.157C623.333 417.824 594.4 360.157 644 308.157C634.333 291.824 610.6 266.957 593 298.156C592 312.156 587.4 340.957 577 344.157C564 348.157 493 380.157 482 400.157C478.782 404.592 473.245 411.646 469.067 415.506C469.676 415.411 470.319 415.294 471 415.156L492 393.157C493.667 396.158 499.999 407.957 496 415.156C492 422.356 477.667 421.49 471 420.156C469.273 419.712 467.162 419.079 464.745 418.251C464.447 418.26 464.196 418.178 464 417.993C449.989 413.086 426.416 401.903 407 383.156C405 383.823 402.2 371.156 407 315.156C414.333 294.156 428 250.356 424 243.156C419.001 234.157 449 258.157 443 298.156L449 290.157L443 250.157ZM435.399 364.157C427.668 364.157 427 369.008 427 377.309C427 385.609 439.801 395.156 447.532 395.156C455.264 395.156 454.999 385.61 454.999 377.309C454.999 369.008 443.131 364.157 435.399 364.157ZM387 268.157C394.5 268.157 410.1 270.157 412.5 278.157C414.9 286.158 406.5 314.824 402 328.157L387 268.157Z" fill="#7A9663"/>
<circle cx="440.5" cy="379.657" r="9.5" fill="#A0AF92"/>
<path d="M446.407 407.018C446.639 407.428 447.131 408.158 447.461 408.497C447.466 408.504 447.472 408.51 447.478 408.517C447.555 408.599 447.629 408.673 447.72 408.757C447.94 408.948 448.229 409.238 448.932 409.606C449.144 409.698 449.36 409.772 449.579 409.827C450.746 410.123 451.963 409.818 453.05 409.176L452.767 409.413C453.66 408.234 454.574 407.071 455.503 405.919C455.525 405.889 455.547 405.859 455.57 405.829C455.92 405.349 456.34 404.777 456.686 404.349L458.376 405.563C458.315 405.657 458.252 405.755 458.199 405.834C457.828 406.393 457.596 406.792 457.407 407.122C456.488 409.03 455.845 411.405 456.872 412.923C457.078 413.225 457.349 413.484 457.673 413.696C457.738 413.738 457.806 413.78 457.878 413.82L457.5 413.722C457.723 413.723 457.911 413.749 458.086 413.776C458.814 413.905 459.36 414.026 459.882 413.97C460.181 413.92 460.438 413.817 460.662 413.689C460.976 413.508 461.23 413.278 461.441 413.079C461.954 412.603 462.504 411.904 462.875 411.34C462.937 411.248 462.995 411.156 463.045 411.078C463.293 410.613 463.506 410.156 463.719 409.658L465.352 410C465.352 410.032 465.352 410.063 465.352 410.095C465.341 410.146 465.328 410.197 465.314 410.247C465.144 410.876 464.901 411.565 464.362 412.42C464.131 412.791 463.844 413.19 463.522 413.636C463.317 413.923 463.188 414.047 463.084 414.151C463.054 414.181 463.026 414.209 462.999 414.24C462.907 414.344 462.861 414.481 462.82 414.636C462.768 414.84 462.718 415.066 462.633 415.322C462.409 416.16 463.026 416.49 463.272 416.654C463.355 416.703 463.436 416.748 463.52 416.801C463.771 416.962 464.163 417.238 464.454 417.432C464.515 417.473 464.597 417.519 464.696 417.568L464.5 417.526C464.794 417.539 465.176 417.5 465.477 417.434C465.631 417.401 465.84 417.368 466.083 417.308C466.335 417.247 466.622 417.157 466.917 417.02C467.656 416.669 468.012 416.389 468.302 416.18C468.384 416.119 468.459 416.061 468.534 416.001C468.771 415.814 469.061 415.569 469.345 415.307C469.686 414.994 470.02 414.658 470.27 414.396C470.939 413.735 471.585 413.034 472.232 412.339C472.565 411.981 472.894 411.644 473.132 411.394C473.371 411.145 473.5 411.001 473.5 411C473.5 411 473.373 411.147 473.167 411.424C472.96 411.699 472.69 412.083 472.406 412.479C471.833 413.277 471.271 414.086 470.662 414.872C469.92 415.824 469.101 416.765 468.042 417.487C467.305 417.991 466.443 418.366 465.536 418.529C465.443 418.546 465.348 418.562 465.255 418.574C465.004 418.623 464.75 418.658 464.5 418.679L464.219 418.618C463.749 418.45 463.344 418.275 463.009 418.089C462.615 417.872 462.327 417.624 462.117 417.399C461.96 417.232 461.843 417.083 461.712 416.904C461.647 416.814 461.554 416.678 461.464 416.499C460.972 415.736 461.297 414.194 461.839 413.446C462.066 413.077 462.355 412.707 462.619 412.369C462.999 411.888 463.31 411.458 463.401 411.218C463.57 410.798 463.726 410.366 463.739 410.01C463.739 410.007 463.739 410.003 463.739 410L465.197 410.305C464.977 410.771 464.772 411.159 464.695 411.4C464.596 411.702 464.465 411.917 464.24 412.254C464.09 412.473 463.896 412.753 463.617 413.131C463.292 413.566 463.016 413.829 462.757 414.053C462.393 414.357 462.109 414.565 461.661 414.897C461.167 415.267 460.485 415.504 459.96 415.517C459.721 415.527 459.453 415.529 459.184 415.508C458.828 415.483 458.473 415.421 458.188 415.344C457.952 415.281 457.783 415.204 457.647 415.149C457.606 415.132 457.566 415.117 457.531 415.105C457.52 415.105 457.51 415.104 457.5 415.105L457.343 415.104L457.206 415.028C457.108 414.974 457.014 414.918 456.922 414.86C456.844 414.81 456.762 414.754 456.684 414.698C456.65 414.682 456.615 414.666 456.578 414.649C456.393 414.561 456.162 414.437 455.925 414.215C455.552 413.864 455.33 413.45 455.175 413.013C455.054 412.671 454.971 412.31 454.894 411.904C454.841 411.626 454.794 411.31 454.772 410.999C454.737 410.536 454.758 410.084 454.821 409.78C454.845 409.666 454.891 409.573 454.937 409.483C454.937 409.482 454.937 409.482 454.938 409.481C454.941 409.475 454.944 409.469 454.947 409.463C455.061 408.729 455.254 408.02 455.496 407.335C455.512 407.274 455.529 407.212 455.546 407.151C455.631 406.853 455.723 406.568 455.766 406.37C455.81 406.158 456.02 405.665 456.283 405.16C456.404 404.927 456.542 404.68 456.667 404.465L458.273 405.618C458.219 405.693 458.168 405.764 458.121 405.832C458.023 405.973 457.897 406.081 457.767 406.191C457.646 406.295 457.522 406.401 457.414 406.539C457.36 406.609 457.308 406.688 457.252 406.773C457.202 406.848 457.15 406.926 457.091 407.006C457.037 407.08 456.894 407.227 456.711 407.415C456.597 407.532 456.469 407.665 456.336 407.806C456.019 408.205 455.7 408.603 455.378 408.999C455.326 409.093 455.287 409.18 455.266 409.257C455.252 409.313 455.246 409.365 455.239 409.419C455.231 409.491 455.221 409.567 455.189 409.655C455.163 409.723 455.117 409.792 455.072 409.826C455.051 409.842 455.031 409.851 455.012 409.859C454.991 409.868 454.972 409.877 454.958 409.894C454.947 409.906 454.942 409.923 454.934 409.944C454.923 409.977 454.908 410.02 454.866 410.069C454.707 410.252 454.52 410.455 454.336 410.654C454.334 410.657 454.331 410.66 454.328 410.663L454.008 410.931C453.692 411.08 453.397 411.194 453.14 411.289C452.86 411.394 452.432 411.496 451.993 411.546C451.692 411.581 451.379 411.594 451.12 411.592C450.858 411.592 450.596 411.591 450.332 411.569C450.022 411.544 449.72 411.488 449.48 411.398C449.431 411.379 449.375 411.34 449.307 411.29C449.259 411.254 449.204 411.212 449.142 411.169C448.845 411.057 448.561 410.917 448.295 410.755C448.284 410.752 448.273 410.748 448.262 410.745C448.262 410.745 448.262 410.745 448.261 410.745C448.015 410.666 447.671 410.526 447.339 410.154C447.256 410.06 447.215 409.989 447.178 409.925C447.142 409.862 447.112 409.807 447.054 409.74C446.989 409.663 446.902 409.582 446.812 409.489C446.686 409.361 446.55 409.207 446.45 409.03C446.444 409.018 446.436 409.005 446.429 408.991C446.357 408.863 446.256 408.67 446.18 408.468C445.882 407.915 445.664 407.328 445.52 406.731C445.281 405.734 445.247 404.702 445.426 403.719C445.513 403.24 445.662 402.8 445.789 402.485C445.917 402.171 446.001 402.001 446 402C446.001 402 445.919 402.174 445.831 402.499C445.742 402.825 445.666 403.276 445.644 403.746C445.606 404.512 445.711 405.275 445.933 405.99C445.945 406.028 445.958 406.065 445.97 406.102C446.066 406.378 446.183 406.624 446.314 406.858C446.344 406.912 446.376 406.965 446.407 407.018Z" fill="#343434"/>
<path d="M496 355C464.5 368 454.5 391.5 445.5 404C454 374 480.333 358.657 496 352.157C521.2 334.957 531.5 332.657 533.5 333.657L496 355Z" fill="#566842"/>
<path d="M445.5 412.5C437.5 416.1 436.833 411 437.5 408C439.5 408 447 413 463 420C457 426 454 420.5 454 417C446.4 423 445.167 416.5 445.5 412.5Z" fill="#566842"/>
<path d="M561.382 202.5C528.582 205.7 555.882 195.263 561.382 183.263C625.782 160.863 601.167 173.5 592 190.5C596.167 192.166 594.182 199.3 561.382 202.5Z" fill="#566842"/>
<path d="M664.412 263.955C631.996 269.895 656.231 267.916 655.7 281.105C702.972 330.242 696.063 310.051 695.589 290.743C700.059 291.144 695.589 258.242 664.412 263.955Z" fill="#566842"/>
<path d="M469 272C456.761 302.598 458.874 258.962 460.008 245.811C511.5 213 503.5 216 491.274 242.304C474 258 474 259.5 469 272Z" fill="#566842"/>
<path d="M635.716 217.301C602.956 213.711 645.562 204.052 658.536 201.619C691.5 217.301 698.914 235.529 670.295 230.801C650.544 218.365 649.099 218.767 635.716 217.301Z" fill="#566842"/>
<path d="M488.5 357V340C488.5 331.2 482.5 336.333 479.5 340L486 321.5C481.167 321.167 471.4 322.1 471 328.5C470.167 325.667 469.6 319 474 315C469.968 314.87 462.911 315.491 460.386 318.431L459.5 321.5C459.324 320.27 459.676 319.259 460.386 318.431L466 299C463.167 300.5 456.8 303.8 454 305C451.2 306.2 452.833 299.833 454 296.5C450.575 298.344 444.944 302.77 444.312 308.098L445 312.5C444.329 310.99 444.145 309.512 444.312 308.098L442.5 296.5L450 289.5C453.167 286.333 459.5 281.9 459.5 289.5C459.5 297.1 463.833 295.333 466 293.5C469.333 296.101 475 302.743 471 308.5H479.5L477 316.5H488.5V328.5L492.5 334L518.5 340L488.5 357Z" fill="#566842"/>
<path d="M532.5 526C528 531.833 514 543.9 494 545.5C503.667 549.833 524.9 552 532.5 526Z" fill="#566842"/>
<path d="M453.032 477.302C447.878 475.724 436.019 469.254 429.819 456.001C429.308 463.716 433.236 478.777 453.032 477.302Z" fill="#566842"/>
<path d="M450.417 496.29C445.502 498.504 432.321 501.463 418.919 495.593C423.625 501.728 436.512 510.457 450.417 496.29Z" fill="#566842"/>
<path d="M766.63 465C767.964 471.015 768.209 486.468 758.519 500.165C766.481 496.281 779.249 483.811 766.63 465Z" fill="#566842"/>
<path d="M803.272 385C804.46 391.045 810.428 405.302 824.794 413.969C815.943 413.601 799.248 407.292 803.272 385Z" fill="#566842"/>
<path d="M644.088 322C640.133 326.724 632.794 340.326 635.082 356.947C629.806 349.831 624.22 332.88 644.088 322Z" fill="#566842"/>
<path d="M583 434.222C586.888 448.512 596.967 477.802 606.182 480.639C603.421 492.005 594.92 498.635 583 434.222Z" fill="#566842"/>
<path d="M561 556.539C565.232 554.722 574.629 548.194 578.358 536.619C579.721 542.948 578.158 555.791 561 556.539Z" fill="#566842"/>
<path d="M594.5 225L622.5 228.312C616.729 236.476 597.829 254.854 594.5 269.5C590.48 286.769 577.558 293.517 575.052 303.989C573.247 311.965 569.351 316.256 565.14 316.591C560.93 316.925 556.404 313.305 553.233 305.724C551.791 302.115 547.483 291.544 542.681 279.599C539.699 292.163 537.117 303.283 536.263 307.074C534.458 315.051 530.562 319.341 526.351 319.676C522.14 320.011 516.671 327.256 513.5 319.676C509.488 309.594 510.687 322.873 504.294 307.074C498.702 293.266 486.361 297.658 479.5 290.5L504.294 269.5C500.735 274.79 502 282 502 282C511.206 301.739 511.741 298.604 513.5 302.958C517.986 314.157 513.941 297.644 516.5 303.989C526.351 311 526.583 303.222 529.9 302.958C533.09 302.704 536.053 297.974 538.139 288.692C538.518 286.992 539.673 282.149 541.228 275.862C538.827 269.89 536.288 263.8 534.035 258.073C532.454 254.346 531.66 250.814 531.406 247.624C530.624 237.799 535.496 231.248 543.024 230.65C543.79 230.589 544.428 230.538 545.204 230.605C547.393 230.687 550.705 231.965 551.182 237.962C551.354 240.131 551.205 243.096 550.341 246.76C549.369 250.69 548.321 255.267 547.273 259.845C552.243 272.29 557.193 284.48 558.3 287.088C561.827 295.924 565.372 300.136 568.69 299.872C571.88 299.619 574.842 294.889 576.929 285.606C578.58 278.926 588.723 272.691 591.5 260.785C592.548 256.208 596.233 245.934 596 243C604.906 236.316 598.979 229.651 594.5 225ZM544.071 251.881C544.576 253.382 545.198 254.745 545.692 256.118C546.469 252.975 547.247 249.831 547.917 246.953C548.771 243.161 549.058 240.314 548.895 238.272C548.51 233.423 545.897 232.861 544.748 232.952C542.707 233.114 540.552 235.084 540.989 240.57C541.212 243.377 542.144 247.027 544.071 251.881Z" fill="#566842"/>
<path d="M698.328 381.184C702.808 395.52 706.008 399.488 712.28 407.04H681.304C685.272 402.176 688.216 398.592 688.216 392.32C688.216 389.376 687.576 385.792 686.168 381.312C685.4 378.752 684.632 376.192 683.736 373.632C679.896 370.048 676.056 368.512 672.728 368.512C670.296 368.512 668.248 369.28 666.712 370.56C664.792 372.096 663.512 374.528 663.512 377.6C663.512 380.032 664.28 382.72 666.2 385.536C668.888 389.76 670.296 393.344 670.296 396.544C670.296 398.08 669.912 399.488 669.272 400.768C666.968 404.992 660.824 407.04 651.096 407.04H631C637.4 399.488 630.52 383.872 635 369.536C640.376 352.512 642.392 342.144 645.72 331.904C648.28 323.968 667.736 320 671.96 320C676.184 320 680.408 323.968 682.84 331.904C686.04 342.144 693.208 365.056 698.328 381.184ZM665.176 368.768C667.224 367.104 669.784 366.208 672.856 366.208C675.8 366.208 679.256 367.104 682.584 369.536C680.024 361.728 677.72 354.432 676.44 349.952C673.496 340.864 666.968 336.384 666.968 336.384C664.152 331.904 653.912 335.912 651.096 345C648.92 351.656 649.304 361.984 645.592 373.632C644.568 376.96 645.976 387.456 645.72 389.888C645.019 396.544 645.592 391.296 645.592 391.936C645.592 399.104 649.944 404.608 656.472 404.608C664.408 404.608 666.584 400.768 667.224 399.616C667.736 398.72 667.992 397.696 667.992 396.544C667.992 393.856 666.712 390.656 664.152 386.816C662.104 383.488 661.208 380.416 661.208 377.6C661.208 373.76 662.872 370.688 665.176 368.768Z" fill="#566842"/>
</svg>
